<?xml version="1.0" encoding="UTF-8"?>
<svg id="Layer_1" data-name="Layer 1" xmlns="http://www.w3.org/2000/svg" version="1.1" xmlns:xlink="http://www.w3.org/1999/xlink" viewBox="0 0 2000 2000">
  <defs>
    <style>
      .cls-1 {
        isolation: isolate;
      }

      .cls-2 {
        display: none;
        fill: #231f20;
      }

      .cls-2, .cls-3, .cls-4 {
        stroke-width: 0px;
      }

      .cls-3 {
        fill: none;
      }

      .cls-4 {
        fill: #fff;
      }
    </style>
  </defs>
  <rect class="cls-2" x="2" width="2000" height="2000"/>
  <image class="cls-1" width="2000" height="2000" xlink:href="Logo-1.png"/>
  <g>
    <path class="cls-3" d="M0,2000V0h2000v2000H0ZM1092.6,1162.6c2,.1,4,.3,6.1.4,1.7-6.3,3.4-12.1,4.7-17.9,1.7-7.6,4.2-15.3,4.3-23.1,0-8.2,3.2-15.3,4.9-22.9,2.4-10.7,6-21.2,8.2-31.9,1.5-7.2,1.5-14.6,2.2-22,.3-3.1.5-6.2,4.3-7.4.8-.2,1.6-1.8,1.6-2.7.2-9.2,3.5-19-4.7-26.8-.5-.5-.4-1.5-.6-2.1-4.5-.6-9.2-1-10.9,3.7-1.9,5.3-2.6,11-3.7,16.6-.3,1.4.1,3.7-.7,4.2-4.3,2.8-2.3,7.1-2.5,10.6-.4,8,1.5,16.3-.4,23.8-1.8,7.2-6.8,13.9-11.4,20.1-4.8,6.6-7.7,12.7-2.4,20.2.4.6.2,1.6.3,2.4.5,5.5-2.9,9.1-6.6,12.2-3.8,3.2-5.6,6.7-3.5,13-2.8-1.4-4.4-2.3-6.7-3.4,2-2.5,3.4-4.6,5.1-6.3,5.2-4.8,9.2-10.1,7.7-17.7-.3-1.4-1.8-2.5-2.5-3.8-1.1-2.1-5.7-3-2.8-6.5,2.3-2.8,4.5-5.1,6.1-8.7,3.4-7.8,9.3-14.4,14.8-22.6-4.7-2.2-9.2-4.3-14.2-6.6-1.9,11.4-8.2,18.4-17.1,23.7-2.3,1.4-4.9,4.4-5.1,6.9-.7,8.4.9,16.9-2.2,25.2-1.6,4.3-1.9,9.2-3.6,13.5-2.5,6.4-5.8,12.4-8.5,18.7-2,4.8-3.2,10-5.2,14.8-3,7.3-2.7,14.6-.3,21.8,1,3.2,3.2,6.2,3.3,9.3.3,11.9-8.7,22.5-21,26.6-1.5.5-2.9,2.2-3.8,3.7-1.1,1.9-1.5,4.2-2.2,6.4-.9-1.1-1.1-1.9-.9-2.7,1.3-5.2-2-6.5-6-7.3-3.4-.7-7.2-.7-10.2-2.2-4-2.1-7.5-5.1-10.8-8.1-2.8-2.5-4.7-7.7-7.5-8.1-4.5-.6-3.6-2.9-3.4-5.2.3-3.1,1.8-6.1,1.8-9.1,0-5.4,4-11.2-1.8-16.3,4,1.6,7.4,5.7,10.8.4-3.5-5.9-7-11.5-10.1-17.4-3.1-6-7.1-11.9-8.4-18.3-1.4-7-4.5-13.2-6.4-19.8-2-7.1-3.9-14.3-6-21.4-.6-2-1.2-4.3-2.5-5.7-9.3-9.4-19.5-17.9-22.2-32.1-2.1-11-5.5-21.7-8.3-33,3.9,2.3,7.2,4.3,11.3,6.7-1.8,19.8,3.8,37.7,21,52.7.7-8.3,1.8-15.3,1.6-22.2-.2-6.8-1.6-13.6-2.6-21,3.6,3,6,5.8,5.9,10.6,0,4.9,3.4,6.8,8,4.9-1,7.4.5,14.1,4.9,19.9,3.3,4.4,7.1,8.4,10.5,12.6,2.9,3.6,4.7,1,6.2-1.2,1.1-1.5,1.9-3.5,2.1-5.3,1.1-9.3,2.1-18.6,3-27.9.2-1.5.2-3.1.3-5.2,2.8,2.1,4.9,4.8,7.2,5.1,1.8.2,4-2.5,5.8-3.8.7,1.8,2.1,4.1,2.5,6.6,1.2,7.9,2.5,15.8,3,23.7.6,7.6.8,8.2,7.8,7.6,11.6-14.2,11.9-32.3,17.8-48.3.4.3.9.5.9.7,0,3.1-.8,6.3-.3,9.4.8,4.8,5.3,1.4,7.9,2.9,2.9,1.8,4.7.2,4.9-3,.2-2.8,0-5.7,0-8.5.5-11.6,11.6-18.6,22.1-14,1.4.6,3,.7,4.4,1.1.4,5,0,10.4,1.5,15.4,1.3,4.9,4.4,9.4,6.7,14.1.6,0,1.2-.2,1.8-.2,1.5-2.9,3.8-5.8,4.3-8.9,1.8-9.8,3-19.6,4.1-29.5.2-1.8-1-4.8-2.3-5.3-1.7-.6-4.1.7-6.1,1.5-1,.4-1.7,1.6-2.5,2.4-.8.8-1.7,1.4-2.6,2.1,3.4-6.9,8.5-10.4,14.6-8.9,4.6-8.1,8.7-15.5,13.2-23.4.8,2.9,1.1,5.2,2,7.1,2.5,5.3,5.5,10.3,7.8,15.7,2.9,6.8,5.5,13.8,8,20.8,2.2,6.1,4.3,12.2,5.9,18.5,1.4,5.5,2,11.3,3.2,16.9,1.7,7.2,3.6,14.3,5.5,21.7.4,0,1.4.4,1.6.1,2.3-3.6,6.9-8,6.1-10.6-1.2-3.8.7-6,1-8.9.5-4.1,2.4-8.1,2.5-12.2.3-20.3.1-40.7.1-61,0-1.5,0-3-.2-4.5-1.3-7.4-5.1-14.5-2.9-22.4.3-1,0-2.3-.5-3.3-1.6-3.3-3.4-6.4-5.5-10.5,3,.8,5.3,1.5,7.7,2.2,3.8-3.2,4.7-8.3,2.2-12.8-.6-1.2-.9-2.8-.7-4.2.3-2.4,1.6-4.8,1.7-7.1.2-9,0-18,0-27,0-1.3,0-2.7-.2-4-.8-4.4-1.6-8.8-2.5-13.1.5-.4,1-.7,1.5-1.1,2.7.9,5.3,2.1,8,2.7,1.3.3,3.6-.3,4.1-1.2,4.3-8.2,8.2-16.2,14.5-23.5,5.9-6.9,10.6-15.5,11.8-25.2.2-2.1,2.3-4.6,1.6-6-1.7-3.6-4.3-7-6.9-10.1-4.4-5.1-10.4-9.5-11.6-16.4-1.7-9.8-2.5-19.7-3.1-29.6-.2-4.1,1.1-8.3,1.9-12.4.9-5.5,1.7-11,3-16.3,2.4-9.7,10.8-14.6,20.3-12.2.8.2,1.9,1,2,1.7.8,5.7,4.9,10.5,3.8,16.7-.3,2,1.1,4.3,1.3,6.5.2,2.4,0,4.8-.1,7.2-.1,1.4-1.2,2.7-1.2,4.1-.1,7.8-.2,15.7,0,23.5,0,1.9,1.4,3.7,2.8,7,1.9-2.6,3-3.7,3.7-5,1.2-2.1,3.6-5.7,3.1-6.3-4.6-5,.9-8,2.2-11.3,2.7-7.3,6.8-14.1,10.1-21.2,2.4-5.2,4.1-10.7,6.6-15.8,3.3-6.7,6.9-13.2,10.7-19.7,3.4-6,6.4-12.3,10.8-17.5,6.8-8,14.5-15.3,22.2-22.4,7.8-7.1,16.2-13.4,24.1-20.4,6.7-5.9,13.3-11.9,19.4-18.4,3.4-3.6,6.1-8,8.2-12.4,2.6-5.6,4.3-11.7,6.4-17.6,3.5-9.8,7.2-19.7,10.6-29.5.4-1.2,0-2.7-.2-5-1.7,1.8-2.9,2.6-3.4,3.7-2.2,4.9-3.8,10-6.3,14.7-2.8,5.2-5.8,10.7-9.9,14.9-5.6,5.6-12.1,10.5-18.8,14.9-4.5,3-9.8,6-15,6.5-6.4.6-13.1,1.4-19.8-1.3-7.1-2.9-15-4-22.7-5.2-12.7-2-20.9-10.8-29.5-18.7-6.3-5.8-11.5-13-17-19.7-2.5-3.1-5.3-6.1-7.1-9.6-3.5-6.8-6.6-13.9-9.6-21-2.3-5.4-4.7-10.9-6.4-16.6-2.4-8-3.2-16.6-6.4-24.3-4.6-11.1-7.9-22.5-10.7-34.1-.6-2.5-.8-5.2-1.3-7.7-2.2-9.5-4.6-19-6.6-28.5-1.3-6-2.2-12.1-3-18.2-1.2-10.1-2.8-20.3-2.9-30.5-.2-10.5.8-21.1,4.7-31.2,3.5-9.1,5.4-18.8,9.3-27.7,3.2-7.2,8.1-13.8,12.7-20.4,5.7-8.2,12.7-15.4,21.9-19.7,7.2-3.4,19.2-3.5,26.3,4,3.8,4,8.8,7.2,13.6,10,5.7,3.4,11.9,6.1,17.9,9,.9.5,2.1.4,2.3.5-.6-4.5-1.1-8.4-1.8-12.3-1.2-6.6-2.7-13.2-3.9-19.8-.5-2.4-.4-4.9-1.1-7.3-2.5-8.9-5.1-17.9-8-26.7-2-6.3-3.8-12.7-6.7-18.6-4.6-9.4-9.7-18.6-15.1-27.4-5.8-9.5-11.9-18.9-18.8-27.7-5.1-6.6-10.7-12.8-18.9-16.5-7.5-3.4-14-9-21.2-13.1-10-5.7-20.2-10.9-30.4-16.2-1.3-.7-2.9-.7-4.5-1-1.8,16.9,4,29.5,17.7,39.2.8-2.2,1.3-3.7,1.8-5.1,1.6,2,2.9,3.9,4.4,5.5,10.3,11,21.1,21.6,30.9,33,5.4,6.3,9.9,13.6,13.6,21,4.4,8.6,8.1,17.6,10.9,26.9,1.2,4,.9,9.8-1.3,13.2-2.4,3.7-5,6.7-4.3,11.4.1.8-.6,1.7-1.4,4-1.5-3.8-2.8-6.3-3.5-9-1.4-5.9-3.8-11.1-8.5-14.9-11.8-9.6-19.3-22.6-27.4-34.9-3.7-5.6-5.5-12.5-8.2-18.9-2-4.8-3.8-9.7-6-14.4-2.4-5.1-4.8-10.3-7.7-15.1-3.4-5.7-8.3-10.6-10.9-16.6-5.3-12.1-4.2-25.1-2.4-37.8,1.2-8.3,0-14.2-5.6-16.7-1.6-.7-3.4-.9-5.1-1.4-4.8-1.4-9.6-2.9-14.4-4.4-4-1.2-7.9-2.5-11.9-3.5-6.4-1.6-12.9-3.9-19.4-4.2-6.2-.3-12.4,1.8-18.7,2.7-5.1.8-10.2,1.7-15.4,1.9-2.8,0-5.6-1.3-8.4-1.8-5.1-1-10.2-1.8-15.2-3-2.5-.6-4.8-2.6-7.3-2.9-7.7-.7-15.5-.9-23.3-1.1-1.3,0-2.8.6-4.1,1.2-9,3.8-16.4,11.1-27.1,11.1s-3.7,0-4.3-3c-1.5-7-7.3-11.5-14.4-11.2-3.5.2-6.9,1.2-10.4,1.9-7.4,1.6-15,2.8-22.2,4.8-6.5,1.9-12.8,4.7-19.1,7.1-5.7,2.2-11.5,4.4-17,7-4.5,2.1-8.9,4.6-13.2,7.1-5.2,3-10.2,6-8.5,13.5.4,1.9.5,4.1,0,5.9-.6,2-2,3.9-3.3,5.5-1,1.2-2.5,2-3.9,2.8-4.8,2.7-9.3,6.8-14.5,7.8-8.6,1.6-14.9,6.7-20.7,11.9-9.6,8.7-17.6,19.1-26.8,28.2-13.7,13.6-23.5,29.7-30.6,47.3-4.5,11.1-8.2,22.8-10.8,34.5-2.1,9.3-2.2,19.1-3.3,28.6-.3,2.8-1.5,5.6-1.6,8.4-.1,2,.8,4,1.2,6,1.5-.3,3.2-.3,4.4-1.1,5.7-3.8,11-8.3,17-11.7,5.4-3.1,10.2-8.4,18-2.6,7,5.3,15.9,8,23.7,12.5,12.3,7,21.4,17,26.3,30.5,1.7,4.7,3.4,9.5,5.2,14.1,1.5,3.9,3.8,7.5,4.7,11.5,1.5,6.3,2.3,12.7,3.1,19.2,1.1,8.6,2.2,17.2,3,25.9,1,10.6-1.6,21.4,1.8,32,.8,2.4-1.5,5.6-1.7,8.6-.8,10.5-1.4,21-2.1,31.5-.3,4.6-.5,9.3-1,13.9-.5,4.1-1.8,8.1-1.9,12.1-.3,9.6-.5,19.1-2.9,28.6-2.8,11.6-6,22.9-11.1,33.8-5.4,11.6-12.2,22.1-21.1,31.3-2.1,2.2-3.5,5-5.6,7.2-1.6,1.7-4.4,2.4-5.8,4.2-8.4,11.1-21.3,14.2-33.4,17.6-6,1.7-13.2.4-19.7-.6-6.7-1-13.2-3.2-19.8-4.7-2.8-.7-5.8-.7-8.4-1.8-4.8-1.9-9.7-4-14.1-6.7-7.3-4.5-15.1-8.7-21-14.7-5.9-6-10.6-13.7-14-21.5-4.8-10.8-8.5-22.1-11.9-33.5-2-6.9-4.4-13.9-2.4-21.6,1.4-5.4,1.3-11.2,2.2-16.8,1-6.4,2-13,3.8-19.2,1.9-6.4,5.1-12.5,7-18.9,3.9-13.3,11-25.1,17.3-37.3,1.1-2.1,4.7-3,7.3-4.2,1.5-.7,3.5-.6,5-1.3,2.3-1.1,4.4-2.9,6.8-3.9,5.7-2.4,11.5-4.4,16.5-6.3-4-1.8-9.4-3.4-13.7-6.6-11.3-8.4-23.7-12.8-37.8-12.1-2.9.1-5.8,1.2-8.6,1.9-3.1.8-6.2,1.6-9.3,2.3-5.4,1.3-10.7,2.7-16.2,3.6-3.1.5-6.4.4-9.5,0-1.7-.2-3.2-1.9-4.9-2.7-1.3-.6-3.7-1.3-3.9-1-1.5,2.5-3,5.1-3.6,7.9-1.1,5.5-1.1,11.1-2.2,16.6-2.3,10.9-.5,20.2,6.8,29,3.2,3.9,7.2,8.2,6.5,14.5-.2,2,1.2,4.3,1.8,6.5,1.3,4.3,4,8.7,3.7,12.9-.6,10.5,2.3,20.2,5.5,29.7,2.8,8.4,6.7,16.5,10,24.7,1.3,3.3,2.5,6.6,3.8,9.9,2.4,6.1,4.7,12.2,7.2,18.3,2.2,5.6,4.8,11,6.8,16.6,1.5,4.3,1.4,9.3,3.3,13.2,3.1,6.3,7,12.3,11.2,17.9,6.7,8.9,13.4,17.9,21.1,25.9,8.3,8.8,17.7,16.7,26.7,24.8,1.2,1,3.4.8,5.1,1.5,1.6.6,3.7,1.3,4.3,2.6,3,5.9,5,12.4,8.5,17.9,3.4,5.2,4.7,11.7,10.3,15.6,4.7,3.3,9.1,7.2,13.8,10.5,10.2,7.1,15.4,17.1,17.8,29,.7,3.6,1.8,7.2,3,10.6,2.2,5.9,5.2,11.5,6.7,17.6,1.7,6.8,2,14,3.2,20.9.7,4.1,1.3,8.5,3.2,12,2.8,5.2,6.7,9.9,10.1,14.8.8-.4,1.6-.8,2.4-1.2-1-4.1-1.8-8.3-3.2-12.3-1.5-4.4-4.7-8.4-5.2-12.8-1.1-8.6-1.3-17.4-1.1-26.1,0-4.4,1.5-8.9,3-13.1,1.5-4.3,3.8-8.5,5.9-12.5,1.7-3.2,8.5-3.5,9.8-.3,2.2,5.3,4.8,4.5,8.7,1,0,2.8-.4,5.2-1.1,7.4-.3,1.1-1.4,2.2-1.4,3.3.6,13.2,1.3,26.5,2,39.7,0,.5.3.9.5,1.4,1.8,7.2,4.5,14.4,5.2,21.7.9,8.6.3,17.2,3,25.7,1.1,3.5,1.7,7.7.2,11.6-.6,1.6-1.9,3.5-1.4,4.7,2.9,7.5,6.1,15,9.6,22.2.7,1.5,3.4,2.8,5,2.7,1.3,0,2.8-2.3,3.6-3.8.7-1.2.5-3,.8-4.5.7,0,1.3-.2,2-.2,1.5,5.2,3.6,10.4,4.2,15.7,1.5,13.1,2,26.3,3.3,39.4.4,3.8,1.3,7.9,3.3,11,1.9,2.9,5.5,4.6,8.2,6.8-.7,1-2.2,2.3-2.5,3.8-.7,4.8-1.2,9.8-1.2,14.7-.1,26.7,0,53.3,0,80,0,3.1,0,6.5,1.3,9.1,1.7,3.3,2.9,6.3,3,10,0,1.5,2.6,2.9,4,4.4,1.2-1.5,2.7-2.8,3.7-4.4.7-1.1.7-2.5,1.2-3.7,2.6-6.4,5.4-12.7,7.8-19.1,2.8-7.5,5.3-15.1,8.1-22.7,2.6-7.1,5.2-14.1,8-21.1,2.2-5.6,4.5-11.1,6.7-16.6.5.1.9.3,1.4.4-.2,4.1,1.1,9.3-1,12-4.8,6.3-.9,12.1-.6,18,.3,5.6,2,11.2,3.1,16.8,0,0-.5.2-.9.4-1-2.1-2.4-4.2-3.1-6.4-.8-2.7-2.3-3.6-5.1-3.5-2.7.1-5.2,0-6.5,3.2-3.2,7.8-3.4,15.4,1.3,22.8.6,1,1.2,2,1.6,3.1,3.1,9.2,5.8,18.6,9.2,27.7,4.4,11.6,9.5,23,13.9,34.6,3,7.8,5.4,15.8,7.8,23.8,1.9,6.2,3.4,12.4,5,18.4,2.5-.2,3.7-.4,5-.5,1.3,0,2.7,0,4,0,3.1-.3,6.5-6.2,4.6-8.6-4.7-6.3-1.6-13.4-2.4-20,0-.7,1.3-1.6,2.1-2.4,4.2-4.7,3.3-12.5-1-17.2-2.8-3-4.6-7.2-6.1-11.1-2-5.2-2.4-10.9-6.9-15.2-3.7-3.5-7.9-7.3-9.6-11.8-2.9-8-9.3-14.4-10-23.3,0-1.5-1.2-2.9-1.8-4.4.5-.2,1-.3,1.4-.5.6,2,.9,4.1,1.8,5.9.8,1.4,2.1,2.7,3.5,3.5.3.2,2-1.4,2.7-2.3,1.4-2.1,2.6-4.3,4.7-7.7,0,2.7.2,4,0,5.2-2,12-2.6,23.6,9.2,31.7,2.4,1.7,4,4.8,6.6,6,4.2,2.1,4.1,2.2,1.9,6.4-1.4,2.7-2.5,7.8-1.1,9.1,5,4.8,9.8,10.6,17.5,11.9.8.1,1.4,1.3,1.5,1.4-2.7,1-6.2,1.3-6.8,2.7-2.7,6.5-5,13.3-6.3,20.2-.5,2.4,2.5,5.4,3.8,8.2.7,1.5,2.4,3.7,1.9,4.4-3.1,4.5-6.7,8.6-10.1,12.9-.1-.4-.3-.9-.4-1.4-1.8.4-4.7.3-5.1,1.3-1.5,3.3,3.3,12.6,6.8,14,3.8,1.6,7.6,3,11.6,4.5-3.9,2.5-7.3,1.8-10.9-.5-4-2.6-8.7-4.3-12.4-7.3-5.4-4.3-10.1-9.3-15.2-14-1.9-1.8-3.5-4.1-5.7-5.1-1.2-.6-4.8.8-4.9,1.5-.4,4-1.4,8.8.2,12.1,3.7,7,9.4,12.9,12,20.6.7,2,1.7,3.9,2.9,5.6,6.2,9.1,12.8,17.8,18.7,27.1,3.6,5.7,7.4,9.9,14.8,8.6,1.4-.2,2.8.1,3.5.2-1.4,4.7-3.1,9.2-3.8,13.8-.4,2.9.8,6,1.3,9,.5,2.6,4.1,4.9,6.5,3.8s4.6-2.7,7-3.6c1.2-.4,2.9-.2,4.2.3,4.5,1.9,2.6,5.8,2.4,9-.2,2.5-1.3,4.9-1.5,7.5,0,1.2.8,3.5,1.6,3.6,1.6.3,4,0,4.9-1,2.8-3.1,5.1-6.6,7.5-10,2.1-2.8,4.1-5.7,6.1-8.5,1.5,5.7-1.8,12.3,6.1,15.1,1.2-4,3.1-6.3,7.4-6.4,1.8,0,3.6-2.3,5.1-3.9,1.5-1.6,2.5-3.5,3.7-5.3.5,0,1,.2,1.5.3,1,3.2,1.5,6.6,3,9.4,2.4,4.4,5,8.9,8.3,12.6,2.2,2.5,5.3.7,5.6-2.8.1-1.6-.2-3.5.5-4.9,1.8-3.7,3.9-7.1,6.1-10.9,8.2,2.4,13.5,11.7,22.6,13.7,1.1-9.7,2.1-18.7,3.2-28.8,2.6,1.9,4,3.5,5.7,4.1,2.1.7,4.5.8,6.8.7,1,0,2-1.8,2.8-1.6,3.5.8,3.1-.7,2.8-3.3-.5-4-1-7.5,4-10.7,8.5-5.4,14.2-13.9,18.9-23,5.3-10.4,11-20.7,16.8-30.8,1.5-2.7,3-5.6.3-7.3-1.7-1.1-5.5-.7-7.4.6-8.9,5.6-18.9,7.4-28.9,7.8-4.1.2-8.3-.9-12.4.6,0,0-.4-.5-1-1.3,1.2-.9,2.3-2.2,3.7-2.6,2.8-.7,5.8-1.2,8.8-1.2,4,0,5.6-2.3,4.9-5.8-.6-3-2.1-5.9-3.3-8.8h0ZM410.2,695c-7.2,14.8-6.3,30-5.9,44.9.4,12.2,2.7,24.5,5,36.6,1.9,10,4.8,19.9,7.7,29.7,3.8,12.7,7.7,25.4,12.1,38,4.7,13.5,9.4,27.2,15.2,40.2,8,18,17,35.6,25.9,53.2,6.9,13.6,13.8,27.3,21.4,40.5,12.1,21,24.7,41.9,37.4,62.6,9.3,15.2,18.8,30.2,28.9,45,11.2,16.4,22.7,32.5,34.6,48.4,8,10.8,16.7,21.1,25.3,31.5,9.4,11.3,18.8,22.7,28.8,33.5,8.8,9.6,18.6,18.5,27.7,27.9,8.7,9.1,17.1,18.4,25.7,27.6,3.1,3.3,6.6,6.4,9.7,9.8,7,7.8,13.6,15.9,20.8,23.5,6.2,6.7,12.8,13.1,19.4,19.5,8.9,8.7,17.5,17.6,26.8,25.7,13.1,11.4,26.7,22.2,40.1,33.3,7.7,6.4,15.3,12.9,23.1,19,13.2,10.4,26.3,20.9,40,30.7,31.8,22.6,63.8,45,96,66.9,14.9,10.1,30.7,19,46.2,28.2,12.3,7.3,24.8,14.2,37.2,21.2,14.9,8.3,29.8,16.7,44.8,24.8,13.2,7.2,26.4,14.3,39.8,21.2,15,7.7,30.2,15.2,45.4,22.6,10.6,5.1,21.3,10,31.9,14.9,3.7,1.7,7.5,2.9,11.3,4.3,5.9,2.2,11.8,4.6,17.8,6.7,9.9,3.5,19.8,6.9,29.7,10.2,6.7,2.2,13.5,4,20.2,6.1,8,2.6,16,5.3,24,7.9,6.5,2.1,13.2,3.9,19.7,6.1,10.8,3.6,21.4,7.8,32.4,10.9,9.6,2.7,19.6,3.9,29.2,6.4,5,1.3,4.7-1,3.9-4.2-3.7-16.7-14.6-26.7-30.1-32.2-13-4.7-25.7-9.8-38-16.1-11.3-5.7-22.6-11.3-33.9-16.9-11.4-5.7-22.9-11.4-34.3-17.3-12.4-6.3-24.8-12.7-37.1-19.2-9.8-5.1-19.4-10.4-29.1-15.7-8.7-4.7-17.4-9.4-26.1-14.1-10.4-5.6-20.8-11.3-31.3-16.8-11.5-6.1-23.2-11.8-34.6-18-12.3-6.7-24.5-13.8-36.7-20.9-7.9-4.6-15.8-9.3-23.6-14.1-4.2-2.6-8.1-5.5-12.3-8.1-12.5-7.6-25.4-14.6-37.5-22.7-19.3-13-38.1-26.7-57-40.2-9.6-6.8-19.2-13.7-28.4-21.1-9.5-7.6-18.5-15.6-27.5-23.7-13-11.7-25.9-23.4-38.5-35.5-6.5-6.3-12.3-13.3-18.4-20.1-5.6-6.4-11.1-12.9-16.6-19.4.2-.5.5-1.1.7-1.6,1.6,0,3.2-.2,4.8,0,13.9,2.2,23.7,11.4,33.3,20.4,6.6,6.1,12.2,13.4,18.8,19.5,7,6.5,14.8,12.2,22.2,18.4,11,9.2,21.4,19.2,32.9,27.6,21.6,15.8,43.8,31,66,46.1,12.4,8.4,25.3,16.1,38,24.1,4.3,2.7,8.6,5.6,13,8.2,10.8,6.4,21.6,12.8,32.3,19.2,5.2,3.1,10,6.8,15.3,9.8,13.8,7.9,27.9,15.4,41.8,23.2,13.5,7.6,26.7,15.6,40.2,23.1,13.8,7.7,27.8,15,41.7,22.5.6.3,1.2.6,1.8.9,10,5,20,9.9,29.9,14.9,6.4,3.2,12.6,6.9,19.1,10,7.9,3.8,16,7.2,23.9,11,8.3,4,16.6,8.3,24.9,12.4,7.5,3.7,14.9,7.9,22.7,10.7,12.3,4.3,25,7.9,37.6,11.2,14.9,3.9,30.1,4.1,45.1.8,15.4-3.3,30.5-7.7,44.5-15.5,2.8-1.6,2.7-2.7,1.1-4.1-6.5-5.7-14.3-8.6-22.8-10.3-10.2-2.1-20.4-4.7-30.2-8-9.6-3.3-18.8-7.9-28.2-11.8-12.2-4.9-24.4-9.8-36.7-14.5-8.4-3.3-17-6.3-25.4-9.6-6.1-2.3-12.1-4.7-18.1-7.1-7.4-2.9-14.7-5.9-22.1-8.9-6.5-2.6-12.9-5.3-19.4-8-3.7-1.6-7.3-3.4-11.1-4.9-6.7-2.8-13.5-5.2-20.1-8.2-5.3-2.4-10.4-5.3-15.6-8-7.2-3.6-14.5-7.2-21.8-10.7-9.2-4.4-18.6-8.3-27.6-13.1-11-5.7-21.6-12-32.4-18.1-11.4-6.5-23-12.7-34.2-19.6-14.1-8.6-27.8-17.7-41.7-26.5-1.1-.7-2.2-1.3-3.4-1.9-10.7-5.5-21.9-10.2-31.9-16.7-11-7.2-21-16.1-31.5-24.1-7.6-5.8-15.5-11.1-22.9-17-11-8.8-21.4-18.2-32.4-27.1-13.2-10.6-27-20.6-40-31.4-10.9-9.1-21.2-18.8-31.6-28.6-7.2-6.7-13.8-14-21-20.8-10-9.6-20.2-18.9-30.3-28.4-7.6-7.2-15.1-14.5-22.7-21.7-7.7-7.2-15.5-14.1-23.2-21.3-2.3-2.1-4-4.8-6.3-6.9-9.9-9.1-20.1-18-29.9-27.2-7.5-7-14.4-14.6-21.9-21.7-8.3-7.9-17.1-15.2-25.1-23.4-6.5-6.7-12-14.4-17.9-21.7-10.6-13.1-21.3-26.1-31.9-39.2-11.1-13.8-22.1-27.8-33-41.7-14.8-18.8-29.9-37.4-44.4-56.5-12.2-16.1-23.5-32.9-35.4-49.2-8.9-12.2-18.1-24.1-27.1-36.3-9.1-12.4-18-24.9-27-37.4-8.3-11.6-18.3-22-24.6-35.1-9.5-19.9-19.6-39.5-29.4-59.3-2.4-4.8-5-9.5-7.7-14.5ZM1677.6,847.5c-3.3-.6-6-1.8-8.3-1.2-4.5,1-9.8-1.7-13.6,2.7-.4.5-1.8.8-2.2.5-3-2.4-5.2,0-7.5,1.1-3.2,1.7-6.2,3.7-9.4,5.3-1.3.7-3,.8-4.6,1-1.5.2-3.1,0-4.5.4-5.9,1.5-8.2,8.9-15.1,9.1-.5,0-.8,2-1.4,2.8-1.3,1.9-2.6,4-4.4,5.5-3,2.5-8,3.9-9.2,7-2.5,6.1-8,7.7-12.1,11.4-4.4,4.1-8.1,9-12.1,13.6,0,.1,0,.3-.1.5-1.6,2.1-3.2,4.2-4.9,6.2-1.7,2.1-3.5,4.1-5.2,6.2-.9,1.1-1.7,2.4-2.7,3.4-4.1,4.5-8.2,8.8-12.3,13.3-.3.4-.5.8-.8,1.3-3.7,5.7-7,11.7-12.4,16.1-1.4,1.2-2.5,2.9-3.7,4.3-1.2,1.5-2.2,3.1-3.5,4.5-1.5,1.6-4,2.7-4.5,4.5-1.7,5.7-8.5,7.4-9.7,13.7-.7,3.5-4.5,6.4-7,9.5-3.3,4.2-7.7,7.8-9.9,12.5-2.9,6.2-8.8,9.7-12.1,15.4-1.8,3.2-4.8,5.7-7.2,8.5-.7.8-1.5,1.7-2.2,2.5-3.5,4.3-7,8.7-10.6,13-2,2.4-4.1,4.7-6.3,7-1.1,1.2-3.3,1.9-3.6,3.2-.9,4.4-4,6.4-7.5,8.4-.9.5-1.4,1.8-2.1,2.7-2.6,2.9-5.3,5.8-8,8.8-1,1.1-2.1,2.1-3.1,3.1-6.4,6.6-12.6,13.5-19.2,19.9-3.2,3.1-8,4.5-9.1,9.7-.2.9-1.6,1.6-2.5,2.3-6.7,5.8-17.1,7.3-20.1,17.4-.2.7-1.2,1.1-1.9,1.6-8.8,5.4-18,10.2-26.3,16.3-5.1,3.8-12.8,4.9-14.4,12.9-3.1-2.8-4.9-1.8-6.5,1.1-1,1.8-1.8,4.7-3.3,5.2-4.7,1.6-7.7,7.4-13.8,5.7-.6-.2-2,1.8-2.8,3-.6.8-1,1.9-1.5,2.9-4.1-3.3-5.2-2.8-8.6,4.3-4.3-2.9-5.3-1.2-7.8,3.5-2.2.4-4.2.4-5.7,1.2-5.3,3-10.4,6.2-15.5,9.4-30.2,18.8-60.3,37.5-90.5,56.3-3,1.9-6.1,4.7-9.2,4.9-5.6.4-10.3,2.6-14.7,5.3-20.9,12.8-41.7,25.9-62.8,38.3-3.5,2.1-6.7,7.9-12.6,4.2-.3-.2-2,1.4-2.7,2.4-.9,1.2-1.5,2.7-1.7,3.2-2.1-.3-4.2-1.1-4.6-.5-2.5,3.4-6.5,3.8-9.7,5.7-14.7,8.9-29.1,18.3-43.8,27.2-4.4,2.7-9.2,4.6-14.4,7.2.2.3.9,2,2.1,3,6.1,5.3,12.2,10.6,18.5,15.5,13.9,11,27.5,22.5,42.1,32.4,12.8,8.7,26.8,15.7,40.3,23.2,1.3.7,3.9.5,5.3-.3,17.2-10.5,34.2-21.2,51.2-31.9,4.2-2.6,8.4-7,12.6-7,4.9,0,7.1-1.2,7.8-3.8,2.9-.5,4.9-.4,6.3-1.3,3.8-2.3,7.1-5.2,10.8-7.4,10.3-6.2,20.8-12.2,31.2-18.5,18.3-11.1,36.5-22.4,54.8-33.6.8-.5,2.3-.6,3-.1,2.8,2.2,3.4-.6,4.4-1.9.9-1.2,1.4-2.7,2-3.8,1.3.9,2.7,2.2,2.8,2.1,2.1-2.2,4.1-4.5,5.9-6.6,6.3,3.9,5.6-3.3,8.1-5.6.7.8,1.4,1.7,2.5,3.1,2.1-2.5,3.9-4.8,5-6.1,2.3-.5,4-.4,5.2-1.2,10.3-6.2,20.5-12.4,30.6-18.8,3.4-2.1,6.4-4.9,9.7-7.1,3.9-2.6,8-5,12-7.5,1.5-1.1,3.9-1.2,5.2-2.5,1.6-1.6,2.1-4.1,3.6-7.1,2.6,5.5,3.7,2.1,5.2.4,1.8-2,3.3-4.3,5.3-6,7-5.8,17.3-7.6,20.7-17.7,0-.3.5-.4.8-.6,10.2-6.2,20.3-12.5,30.6-18.7,1-.6,2.3-.8,3.5-.9,1.8-.1,3.9.6,5.2-.1,4.8-2.7,9.4-5.9,14.2-8.9.9-.6,2.7-1.6,3-1.3,4.5,4.4,7.1-.6,10.2-2.1,3.5-1.7,6.7-4.1,10.1-6,.9-.5,2.7-1.2,3-.8,2.7,2.9,4.6.6,6.8-.8,3.5-2.2,6.9-4.4,10.6-6.4,1.2-.7,3-.3,4.5-.4,1.6,0,3.4.4,4.7-.3,3.9-2.1,7.5-4.7,11.2-6.9.8-.5,2.4-1,2.5-.9,2.7,4.9,4.8.7,7-.5,2.6-1.3,5.1-2.8,7.6-4.2.8,1.1,1.5,2,2.3,3.1,2-1.3,3.8-2.9,5.9-3.7,4.1-1.4,6.9-7.8,12.7-3.5.3.2,1.5-.5,2.2-.9,5.7-3.3,11.3-6.6,16.9-9.8.1.5.2.9.4,1.4,1.8-.3,3.8-.3,5.5-1.1,2.8-1.3,5.2-3.4,8-4.8,2.3-1.2,4.8-1.9,7.3-2.6,2.6-.8,5.4-1,7.9-1.9,5.4-2,9-9,16.4-6.1.4.2,1.2-.5,1.7-.8,11.9-7.2,23.8-14.4,35.5-21.8,1.4-.9,2.1-3.1,3.1-4.7.6-.9.9-2.3,1.8-2.8,7.1-4,13.5-8.4,17.7-15.7,3.2-5.5,7.8-10.3,10.4-16,3.8-8.8,6.4-18.1,9.4-27.2.4-1.3.5-2.9.5-4.3,0-2.1-.4-4.1-.8-6.2-.7-4.1-1.3-8.1-.1-12.2.2-.7-1.1-2-1.8-3-1.6-2-2.4-3.9-1.2-6.7.7-1.6,0-4.2-.9-5.9-2.2-3.8-5.6-7-3.1-12.1.4-.8-.2-2.5-.9-3.5-1.7-2.8-3.9-5.2-5.4-8.1-2.5-5-7.5-9.3-4.8-16,.3-.8-.6-2.3-1.3-3.2-3.6-4.7-3.2-8.3,1.3-12.2,1.2-1,2.2-2.3,3-3.6,2.9-4.3,6.1-8.5,8.4-13.1,2.9-5.8,5.2-12,7.6-18.1.3-.7-.1-1.6-.2-2.5-.1-1.7-.5-3.5-.3-5.2.6-3.6,2.1-7.2,2.1-10.8,0-4.3-2-8.8-1.2-12.8.9-4.2.2-7-2.4-10-1.5-1.7-2.9-3.7-3.6-5.8-3.1-9.3-12.1-13-18.1-19.6,0,0-.3,0-.9-.1-.9.5-2.1,1.1-3.2,1.6-1.6-2.2-2.9-4.1-4.3-6.1-.3.5-.5,1-.8,1.5-4.8-2-9.5-4-13.5-5.6ZM650.9,1548.7c-.2-.5-.4-.9-.6-1.4-1.8.5-3.8.8-5.5,1.6-3.4,1.5-6.8,5.1-9.8,4.6-3.7-.5-5.9.6-8.6,2.1-3.1,1.8-6.2,3.7-9.4,5.4-.8.4-2.3.9-2.6.6-3.3-3.3-6-.2-7.6,1.4-5.9,6.2-15,3-21.2,7.9-.2.2-1.1,0-1.4-.3-1.9-2.6-3.7-1-5.5,0-2.8,1.6-5.5,3.3-8,4.7-4.7-5.6-7.3,2.2-11.3,1.2-.3-.6-.7-1.6-1.2-2.8-4.3,2.6-8.3,4.9-12.4,7.3-.7-1.2-1.3-2.1-1.8-3-2.9,1.4-5.4,3.1-8.1,3.6-2.1.4-4.5-.7-6.7-1.2,0,.4-.2.9-.3,1.3-.8-.9-1.6-1.8-2.1-2.4-3.8.3-6.3,5.8-10.5,1.6-.3-.3-1.8.5-2.7.9-1.7.9-3.3,2-4.8,2.9-4.3-6.5-6.8,1.9-10.4.7-.5-.7-1.2-1.6-1.5-1.9-4.3-1-6.5,7.4-11.2,1.3-2.4,1.3-4.6,2.6-7.1,4.1-4.5-5-7.2.9-11.2,1.9-.8-.9-1.9-2.8-2.5-2.7-5.3.9-8,9.4-14.9,4.6-.4-.3-1.5.4-2.2.8-10.2,6.4-20.5,12.8-30.7,19.3-1.2.8-2.5,1.8-3.2,2.9-2.6,4.2-4.5,9-7.5,12.9-6.7,8.5-8.4,19-12.2,28.7-.5,1.3-.2,2.9-.3,4.4-.3,3.3-.7,6.5-.9,9.8-.4,5.5-.7,10.9-.9,16.4,0,1,1.2,2,1.2,2.9,0,5.2-.2,10.3-.3,15.5,0,.5.7,1,1,1.5,3.2,5.1,7.5,9.9,5,16.8-.3.8.7,2,1.2,3,2.7,5.3,10.1,9,5.7,16.8-.1.2-.1.8,0,1,4.1,4.7,0,9.2-.9,13.5-1.6,7.9-7,14.7-5.1,24,1.6,7.8,0,16.1-.1,24.2,0,1,1.2,2,1.6,3.2.7,1.9,2.3,4.2,1.7,5.6-1.7,4.3.5,7.2,2.5,10.5,3.6,6,7,12.1,10.4,18.2,1,1.8.9,4.3,2,5.8,5.3,7,11,13.8,16.7,21,.7-.3,2.1-.9,3.1-1.3,1.7,2.1,3.7,5.7,4.5,5.4,4.8-1.6,6,2.7,8.6,4.1,1.9,0,3.5.6,5.2.8,3.3.4,6.6.5,9.9.7,2.8.2,6.2-.3,8.3,1.1,2.3,1.5,3.5.7,5.2-.2,1.5-.8,3.1-1.5,4.7-2.3.6,1.3,1,2.2,1.3,2.9,3.8-1.7,7.1-3.4,10.6-4.7,1.5-.6,3.4,0,4.7-.7,8.6-4.7,17.1-9.6,25.5-14.6,5.1-3,11.1-5.2,12.6-12.1.2-.8,1.8-1.2,2.8-1.8,4.5-3.3,10.1-5.8,13.1-10.1,2.7-3.8,5.6-6.5,9.2-9,1.4-1,2.3-2.7,3.4-4.1,1.7-2.1,3.5-4.2,5.3-6.2,2-2.1,4-4.2,6-6.3,1.7-1.8,3.3-3.6,5-5.3,1.7-1.8,3.5-3.4,5.1-5.2,4.6-5.3,8.7-11,13.7-15.8,3.1-3,7.4-4.5,8.3-9.5.2-.9,1.8-1.7,2.8-2.4,3.4-2.7,6.9-5.3,10.1-8.3,1.9-1.8,3-4.6,5.1-6,4.3-2.9,9.5-4.7,10.6-10.8.1-.8,1.4-1.3,2.2-1.9,5.7-4.5,14-6.1,16.3-14.6.1-.5.9-1,1.5-1.3,5-3.1,10-6.1,14.9-9.4,1.7-1.1,2.8-3.1,4.1-4.7,1.6-1.9,2.9-4.2,4.8-5.6,4.3-3,8.9-5.5,13.3-8.4,1.5-1,3.7-2.2,3.9-3.5.9-4.8,5-6,8.1-8.5,6.7-5.3,16.6-6.9,19.7-16.6.3-.8,1.8-1.2,2.7-1.9,10-7.7,23-11.3,30-22.9.5-.8,1.3-1.6,2.1-2.1,4.6-2.8,9.3-5.5,13.8-8.5,5.9-3.9,11.6-8.1,17.6-12.3,2.7,1.8,3.8-1.7,5.4-3.8,1.1-1.5,1.6-3.8,3-4.8,6.8-4.5,14.1-8.3,20.7-13.2,10.1-7.4,23.4-10.5,30-22.7.5-.9,2-2.1,2.7-1.9,4.1,1,5.1-2.6,7.3-4.5.9-.7,1.8-1.3,2.8-1.9,6.4-4,12.7-8,19.2-12,6.8-4.2,13.7-8.3,20.5-12.6,6.9-4.3,13.5-9.2,20.8-13.1,6.8-3.6,11.1-10.8,19.2-12.5,1.5-.3,2.6-3.1,3.8-4.8.6-.8.8-1.8,1.1-2.3,7.8,4.9,5.9-4.3,9.3-5.6,2.7,3.1,4.5,1.9,5.7-1.6.8-2.3,1.4-4.6,4.8-2.7.4.2,2.6-1.4,2.9-2.5.3-1.1-.2-3.2-1.1-3.9-7.1-5.5-14.2-11.1-21.7-15.9-12.7-8.2-26-15.7-38.7-23.9-7.2-4.7-14.2-9.9-20.7-15.7-7.7-6.8-14.7-14.4-22-21.8-14.2,8.8-28,17.4-42,25.9-4.5,2.7-9.4,4.9-14.1,7.3-.1-.3-.3-.6-.4-.9-1.2,1.6-2.4,3.3-3.6,4.9-7.2-5.2-5.4,3.4-8.3,4.6-3.5-3-4.6-2.4-7.9,4-2,0-3.9-.6-5.1,0-4.3,2.4-8.3,5.2-12.4,7.9-6.5,4.3-12.8,8.8-19.4,12.9-4.5,2.8-9.6,4.8-14.1,7.7-7.6,4.9-14.8,10.4-22.5,15.1-8.5,5.2-17.3,9.7-26,14.6-4.2,2.4-8.3,4.9-12.6,7.4-.5-.7-1.2-1.6-2.2-2.8-4.5,2.8-9.1,5.7-13.7,8.5-2.2,1.3-5,4.1-6.7,3.5-4.5-1.5-5.8,1.2-7.7,4ZM1369.4,1794.2c0-.4,0-.8,0-1.2,1.8,0,3.7.3,5.5,0,11.1-2.6,22.5-4.4,33.2-8.2,12.1-4.3,24-9.6,35.1-15.9,7.5-4.2,14-10.6,20.1-16.8,5.7-5.8,11.4-12,15-19.2,5.1-10.4,8.5-21.7,12.1-32.8,2-6,3.6-12.2,4.5-18.5,1.6-11.4,7.4-19.9,16.6-26.4,5.1-3.6,10.3-7.3,14.5-11.8,8.8-9.4,17.3-19.2,25.3-29.2,10.9-13.7,21-28.1,32.2-41.7,6.8-8.3,14-16.7,22.4-23,10.3-7.8,22.3-12.8,35.5-14.4,5.5-.7,5.7-2.2,2.5-6.6-3.8-5.3-8.7-10.3-10.9-16.3-3.2-8.4-10.4-12.3-16.9-15.5-11-5.3-23-6.7-35.4-2.2-15.8,5.7-28.6,15.5-37.9,28.8-6.7,9.6-10.6,21.1-15.8,31.8-3,6.2-5.4,12.7-9.2,18.4-4.5,6.8-10.2,12.7-15.2,19.2-9.5,12.4-22.5,20.2-35.9,27.4-12.1,6.4-25.2,10.2-38.6,13.2-3.2.7-5.3,2.1-3.5,6.3,3.6,8.3,6.3,17,10,25.3,5.3,11.9,4.4,24.3-.2,35.2-5.4,12.9-14,25-26.2,32.6-12.5,7.8-25.5,14.7-41,16.2-9.2.9-17.1-.5-25-4.1-8.8-4-17.4-8.1-27.1-9.6-5.3-.8-13.5,2.2-16.5,6.6-4.9,7.2-3.4,22.5,3,29.6,10.5,11.6,24,17.9,39,20.6,9.4,1.7,19.1,1.6,28.7,2.3ZM1691.1,1664.1c-.9-11.2-6.1-17.1-15.2-17.9-15.5-1.4-31-2.2-46.6-3.2-3.6-.2-7.1.2-10.7,0-7.2-.5-14.4-1.5-21.6-1.9-7.6-.3-15.3.4-22.9-.4-5.3-.5-9.8.6-13.8,3.5-4.9,3.5-9.2,7.8-13.8,11.6-8.8,7.3-13.4,17.4-17.9,27.6-1.5,3.3,0,4.7,2.6,5.6,6.3,2,12.6,4.2,19.1,5.8,13.7,3.4,27.5,5.3,41.6,3.9,1,0,2.1.8,3.2,1,3.1.8,6.2,1.8,9.4,2.3,13.3,2.1,26.6,4.1,39.9,5.9,8.4,1.1,16.9-.4,22.8-6.2,7.2-7,13.3-15.3,18.8-23.7,3-4.6,3.8-10.6,4.9-13.9ZM1696.6,1635.9c1.3,1.8,1.9,3.2,3,3.9,5.2,3.9,10.6,7.6,16,11.4,2.2,1.5,3.1,3.2,1.4,5.8-3.7,5.9-6.9,12.2-10.8,18-7.5,11.1-13,22.3-12.8,36.5.2,12.6,10.7,26.4,23.4,27.1,7.5.4,15.1,1.1,22.5.2,9.2-1.1,17.9-4.9,24-11.9,8.3-9.5,15.4-20.1,16.3-33.3.7-9.8,1.8-19.9-3.6-28.9-3.2-5.4-6.4-11.1-10.8-15.5-4.4-4.4-9.8-8.6-15.6-10.9-16.9-6.6-34.5-5.2-53-2.4ZM1357.4,568.5c.6.2,1.1.5,1.7.7.6-.5,1.7-.9,1.9-1.6,1.1-3.5,2.2-7,3-10.6,1.8-8.5,3.5-17,5.1-25.5.6-3.4,0-7.5,1.6-10.1,4.6-7,5.1-15.1,7.4-22.7,1.1-3.6,2.7-7.1,3.9-10.7,3-8.4,6.1-16.7,9-25.1,1.7-4.9,2.8-10,4.5-14.9,2.3-6.6,4.6-13.1,3.5-20.2-.4-2.6-1.9-5.1-1.8-7.6.2-5.6-.7-10.7-4.2-15.2-8.8,0-17.7.2-26.5,0-5-.2-9.9-1.2-14.9-1.9-6.9-1-13.8-2-20.7-2.9-2.4-.4-4.9-.6-7.3-1.1-5.1-.9-7.3,3.4-10.9,5.5-10.3,6.2-21.1,11.8-31.7,17.7-.6.3-.7,1.5-.5,1,7.4,2.6,14.8,4.5,21.6,7.7,9.2,4.5,17.6,10.5,26.8,14.9,7.2,3.5,12.9,8.8,16.9,14.9,4.6,7.2,7.5,15.6,10.2,23.8,2.9,8.9,5.8,18.1,6.7,27.4,1.2,13,.7,26.1-2.1,39-1.2,5.8-2.1,11.7-3.2,17.5ZM1659,1731.8c.3.3.7.6,1,1,0,.3,0,.7,0,1,3.9,12.8,10.9,23.7,22.8,29.9,8.6,4.4,13.1,1.4,16.8-4.7,2.3-3.7,1.2-5.9-2.2-7.9-10.2-6.1-19.4-13.3-26.3-23.1-1-1.4-4.8-2-6.8-1.3-2.1.7-3.5,3.4-5.2,5.2ZM1069.8,1075c.8.2,1.7.4,2.5.6,2.6-4.4,5.3-8.8,7.8-13.2,4.3-7.7,3.9-16.3,4.8-24.7.2-2-.8-4.2-.9-6.3-.2-3.5-2.4-5.3-5.2-4.3-4,1.4-7.8,3.7-11.4,6-1.2.8-2.4,2.7-2.3,4,.2,5.9-2.9,11.8-.2,17.7.9,1.9,1.5,4,2,6.1,1,4.7,1.9,9.3,2.8,14Z"/>
    <path class="cls-4" d="M1092.6,1162.5c1.1,2.9,2.6,5.8,3.3,8.8.7,3.5-.8,5.7-4.9,5.8-2.9,0-5.9.5-8.8,1.2-1.3.3-2.4,1.7-3.7,2.6.7.9.9,1.4,1,1.3,4.1-1.4,8.3-.4,12.4-.6,10-.4,20-2.2,28.9-7.8,1.9-1.2,5.7-1.6,7.4-.6,2.7,1.7,1.3,4.6-.3,7.3-5.8,10.2-11.4,20.4-16.8,30.8-4.7,9.1-10.4,17.6-18.9,23-5,3.2-4.5,6.7-4,10.7.3,2.7.7,4.1-2.8,3.3-.8-.2-1.8,1.6-2.8,1.6-2.3,0-4.7,0-6.8-.7-1.7-.6-3.1-2.1-5.7-4.1-1.1,10.2-2.1,19.1-3.2,28.8-9.1-2-14.4-11.3-22.6-13.7-2.1,3.8-4.3,7.2-6.1,10.9-.7,1.4-.4,3.2-.5,4.9-.3,3.5-3.3,5.3-5.6,2.8-3.3-3.7-6-8.2-8.3-12.6-1.5-2.9-2-6.3-3-9.4-.5,0-1-.2-1.5-.3-1.2,1.8-2.2,3.7-3.7,5.3-1.5,1.6-3.3,3.8-5.1,3.9-4.3.2-6.2,2.4-7.4,6.4-7.9-2.8-4.6-9.5-6.1-15.1-2,2.8-4.1,5.7-6.1,8.5-2.5,3.4-4.7,6.9-7.5,10-1,1.1-3.3,1.3-4.9,1-.7-.1-1.7-2.4-1.6-3.6.2-2.5,1.3-4.9,1.5-7.5.3-3.2,2.2-7.1-2.4-9-1.2-.5-3-.8-4.2-.3-2.5.9-4.6,2.6-7,3.6-2.4,1.1-6.1-1.2-6.5-3.8-.5-3-1.8-6.2-1.3-9,.7-4.6,2.5-9.1,3.8-13.8-.7,0-2.2-.4-3.5-.2-7.4,1.3-11.2-2.9-14.8-8.6-5.9-9.3-12.5-18.1-18.7-27.1-1.2-1.7-2.3-3.7-2.9-5.6-2.6-7.7-8.3-13.6-12-20.6-1.7-3.2-.7-8-.2-12.1,0-.7,3.7-2.1,4.9-1.5,2.2,1.1,3.8,3.4,5.7,5.1,5,4.7,9.8,9.7,15.2,14,3.7,2.9,8.4,4.7,12.4,7.3,3.6,2.3,7,3.1,10.9.5-4-1.5-7.8-2.9-11.6-4.5-3.5-1.5-8.3-10.7-6.8-14,.4-1,3.3-.9,5.1-1.3.1.4.3.9.4,1.4,3.4-4.2,7-8.4,10.1-12.9.5-.7-1.2-2.9-1.9-4.4-1.4-2.8-4.3-5.8-3.8-8.2,1.3-6.9,3.7-13.7,6.3-20.2.6-1.4,4.1-1.7,6.8-2.7,0,0-.7-1.3-1.5-1.4-7.6-1.3-12.4-7-17.5-11.9-1.4-1.3-.2-6.4,1.1-9.1,2.2-4.2,2.2-4.3-1.9-6.4-2.5-1.3-4.1-4.3-6.6-6-11.8-8.1-11.2-19.7-9.2-31.7.2-1.2,0-2.5,0-5.2-2,3.4-3.2,5.6-4.7,7.7-.7,1-2.4,2.5-2.7,2.3-1.4-.9-2.8-2.1-3.5-3.5-.9-1.8-1.2-3.9-1.8-5.9-.5.2-1,.3-1.4.5.6,1.5,1.7,2.9,1.8,4.4.6,8.9,7.1,15.3,10,23.3,1.7,4.5,5.9,8.3,9.6,11.8,4.5,4.3,5,9.9,6.9,15.2,1.5,3.9,3.3,8.1,6.1,11.1,4.3,4.6,5.3,12.5,1,17.2-.7.8-2.2,1.7-2.1,2.4.8,6.7-2.4,13.8,2.4,20,1.8,2.4-1.5,8.3-4.6,8.6-1.3.1-2.7,0-4,0-1.3,0-2.5.2-5,.5-1.6-6-3.1-12.3-5-18.4-2.4-8-4.9-16-7.8-23.8-4.4-11.6-9.5-23-13.9-34.6-3.4-9.1-6.1-18.5-9.2-27.7-.4-1.1-1-2.1-1.6-3.1-4.7-7.3-4.5-14.9-1.3-22.8,1.3-3.2,3.8-3.1,6.5-3.2,2.8-.1,4.2.8,5.1,3.5.7,2.2,2,4.3,3.1,6.4.4-.2,1-.3.9-.4-1.1-5.6-2.8-11.1-3.1-16.8-.3-5.9-4.2-11.7.6-18,2-2.7.8-7.9,1-12-.5-.1-.9-.3-1.4-.4-2.2,5.5-4.6,11-6.7,16.6-2.7,7-5.4,14.1-8,21.1-2.8,7.5-5.2,15.2-8.1,22.7-2.4,6.4-5.2,12.7-7.8,19.1-.5,1.2-.5,2.7-1.2,3.7-1,1.6-2.5,3-3.7,4.4-1.4-1.5-3.9-2.9-4-4.4-.1-3.8-1.3-6.8-3-10-1.3-2.6-1.3-6-1.3-9.1,0-26.7-.1-53.3,0-80,0-4.9.5-9.8,1.2-14.7.2-1.5,1.8-2.8,2.5-3.8-2.7-2.1-6.3-3.9-8.2-6.8-2-3.1-2.9-7.2-3.3-11-1.3-13.1-1.8-26.3-3.3-39.4-.6-5.3-2.8-10.5-4.2-15.7-.7,0-1.3.2-2,.2-.2,1.5,0,3.2-.8,4.5-.8,1.6-2.3,3.8-3.6,3.8-1.7,0-4.3-1.2-5-2.7-3.5-7.2-6.7-14.7-9.6-22.2-.5-1.2.8-3.2,1.4-4.7,1.5-3.9.9-8.1-.2-11.6-2.7-8.5-2.1-17.1-3-25.7-.8-7.3-3.4-14.5-5.2-21.7-.1-.5-.4-.9-.5-1.4-.7-13.2-1.4-26.5-2-39.7,0-1.1,1.1-2.1,1.4-3.3.6-2.3,1.1-4.6,1.1-7.4-3.9,3.5-6.5,4.3-8.7-1-1.3-3.2-8.1-2.9-9.8.3-2.2,4.1-4.4,8.2-5.9,12.5-1.5,4.2-2.9,8.7-3,13.1-.2,8.7,0,17.5,1.1,26.1.6,4.4,3.7,8.5,5.2,12.8,1.4,4,2.2,8.2,3.2,12.3-.8.4-1.6.8-2.4,1.2-3.4-4.9-7.3-9.5-10.1-14.8-1.9-3.6-2.4-8-3.2-12-1.2-7-1.5-14.1-3.2-20.9-1.5-6-4.6-11.7-6.7-17.6-1.3-3.5-2.3-7-3-10.6-2.4-11.8-7.6-21.9-17.8-29-4.7-3.3-9.1-7.2-13.8-10.5-5.5-3.8-6.9-10.4-10.3-15.6-3.6-5.5-5.5-12-8.5-17.9-.7-1.3-2.8-2-4.3-2.6-1.6-.7-3.9-.4-5.1-1.5-9.1-8.1-18.4-16-26.7-24.8-7.6-8.1-14.4-17-21.1-25.9-4.2-5.6-8.1-11.6-11.2-17.9-2-4-1.9-9-3.3-13.2-1.9-5.7-4.5-11.1-6.8-16.6-2.4-6.1-4.8-12.2-7.2-18.3-1.3-3.3-2.5-6.6-3.8-9.9-3.3-8.2-7.2-16.3-10-24.7-3.2-9.6-6.1-19.2-5.5-29.7.2-4.2-2.4-8.6-3.7-12.9-.7-2.1-2.1-4.4-1.8-6.5.8-6.2-3.2-10.6-6.5-14.5-7.3-8.8-9.2-18.1-6.8-29,1.2-5.4,1.2-11.1,2.2-16.6.5-2.8,2.1-5.4,3.6-7.9.2-.4,2.7.4,3.9,1,1.7.8,3.2,2.4,4.9,2.7,3.1.4,6.4.5,9.5,0,5.4-.9,10.8-2.4,16.2-3.6,3.1-.7,6.2-1.5,9.3-2.3,2.9-.7,5.7-1.8,8.6-1.9,14.1-.7,26.4,3.8,37.8,12.1,4.3,3.2,9.8,4.7,13.7,6.6-4.9,1.9-10.8,3.9-16.5,6.3-2.4,1-4.4,2.8-6.8,3.9-1.5.7-3.5.6-5,1.3-2.6,1.2-6.2,2.1-7.3,4.2-6.2,12.2-13.4,24-17.3,37.3-1.9,6.4-5.1,12.5-7,18.9-1.8,6.2-2.8,12.8-3.8,19.2-.9,5.6-.8,11.4-2.2,16.8-2,7.7.4,14.7,2.4,21.6,3.3,11.3,7,22.7,11.9,33.5,3.5,7.7,8.2,15.4,14,21.5,5.8,6,13.7,10.2,21,14.7,4.4,2.7,9.3,4.8,14.1,6.7,2.6,1,5.6,1.1,8.4,1.8,6.6,1.6,13.2,3.8,19.8,4.7,6.5.9,13.7,2.3,19.7.6,12.2-3.5,25-6.5,33.4-17.6,1.4-1.8,4.1-2.6,5.8-4.2,2.1-2.2,3.5-5,5.6-7.2,8.9-9.2,15.7-19.7,21.1-31.3,5.1-10.9,8.3-22.2,11.1-33.8,2.3-9.5,2.6-19,2.9-28.6.1-4.1,1.4-8.1,1.9-12.1.5-4.6.7-9.2,1-13.9.7-10.5,1.2-21,2.1-31.5.2-2.9,2.5-6.1,1.7-8.6-3.4-10.6-.8-21.4-1.8-32-.8-8.6-1.9-17.3-3-25.9-.8-6.4-1.6-12.9-3.1-19.2-.9-4-3.2-7.7-4.7-11.5-1.8-4.7-3.5-9.4-5.2-14.1-5-13.5-14.1-23.4-26.3-30.5-7.7-4.4-16.6-7.2-23.7-12.5-7.8-5.8-12.6-.5-18,2.6-6,3.4-11.3,7.9-17,11.7-1.2.8-2.9.7-4.4,1.1-.5-2-1.3-4-1.2-6,.2-2.8,1.3-5.6,1.6-8.4,1.1-9.5,1.2-19.3,3.3-28.6,2.7-11.7,6.4-23.3,10.8-34.5,7.1-17.6,16.9-33.7,30.6-47.3,9.2-9.1,17.3-19.5,26.8-28.2,5.8-5.2,12.1-10.3,20.7-11.9,5.1-.9,9.7-5,14.5-7.8,1.4-.8,2.9-1.6,3.9-2.8,1.4-1.6,2.7-3.5,3.3-5.5.5-1.8.5-4.1,0-5.9-1.7-7.5,3.4-10.5,8.5-13.4,4.3-2.5,8.7-5,13.2-7.1,5.6-2.6,11.3-4.7,17-7,6.3-2.5,12.6-5.3,19.1-7.1,7.3-2.1,14.8-3.3,22.2-4.8,3.5-.7,6.9-1.8,10.4-1.9,7.1-.3,13,4.2,14.4,11.2.6,2.9,1.2,3,4.3,3,10.7,0,18.2-7.2,27.1-11.1,1.3-.6,2.7-1.2,4.1-1.2,7.8.2,15.5.4,23.3,1.1,2.5.2,4.8,2.2,7.3,2.9,5,1.2,10.1,2,15.2,3,2.8.6,5.6,1.9,8.4,1.8,5.2-.2,10.3-1.1,15.4-1.9,6.2-.9,12.5-2.9,18.7-2.7,6.5.3,13,2.6,19.4,4.2,4,1,7.9,2.3,11.9,3.5,4.8,1.5,9.6,3,14.4,4.4,1.7.5,3.5.7,5.1,1.4,5.7,2.5,6.8,8.4,5.6,16.7-1.8,12.6-2.9,25.7,2.4,37.8,2.6,6,7.5,10.9,10.9,16.6,2.9,4.8,5.3,10,7.7,15.1,2.2,4.7,4,9.6,6,14.4,2.6,6.3,4.4,13.2,8.2,18.9,8.1,12.4,15.6,25.4,27.4,34.9,4.7,3.8,7.1,9.1,8.5,14.9.6,2.6,2,5.1,3.5,9,.8-2.3,1.5-3.2,1.4-4-.6-4.7,2-7.7,4.3-11.4,2.1-3.4,2.5-9.2,1.3-13.2-2.8-9.2-6.5-18.3-10.9-26.9-3.8-7.4-8.2-14.7-13.6-21-9.8-11.4-20.6-22-30.9-33-1.5-1.6-2.8-3.5-4.4-5.5-.5,1.4-1.1,2.9-1.8,5.1-13.6-9.7-19.4-22.4-17.7-39.2,1.6.3,3.2.3,4.5,1,10.2,5.3,20.4,10.5,30.4,16.2,7.2,4.1,13.7,9.7,21.2,13.1,8.2,3.7,13.8,10,18.9,16.5,6.9,8.8,13,18.2,18.8,27.7,5.5,8.9,10.5,18.1,15.1,27.4,2.9,5.9,4.7,12.3,6.7,18.5,2.8,8.9,5.4,17.8,8,26.7.7,2.3.6,4.9,1.1,7.3,1.3,6.6,2.7,13.2,3.9,19.8.7,3.9,1.2,7.9,1.8,12.3-.2,0-1.3,0-2.3-.5-6-2.9-12.2-5.6-17.9-9-4.8-2.9-9.8-6-13.6-10-7.1-7.5-19.1-7.5-26.3-4-9.2,4.4-16.1,11.5-21.9,19.7-4.6,6.6-9.5,13.1-12.7,20.4-3.9,8.9-5.9,18.6-9.3,27.7-3.9,10.1-4.8,20.7-4.7,31.2.2,10.2,1.7,20.4,2.9,30.5.7,6.1,1.7,12.2,3,18.2,2,9.5,4.4,19,6.6,28.5.6,2.5.7,5.2,1.3,7.7,2.9,11.6,6.1,23,10.7,34.1,3.2,7.7,4,16.3,6.4,24.3,1.7,5.7,4,11.1,6.4,16.6,3,7.1,6.1,14.2,9.6,21,1.8,3.5,4.5,6.6,7.1,9.6,5.5,6.7,10.7,13.9,17,19.7,8.6,7.9,16.9,16.7,29.5,18.7,7.7,1.2,15.6,2.3,22.7,5.2,6.8,2.7,13.4,1.9,19.8,1.3,5.2-.5,10.5-3.5,15-6.5,6.7-4.4,13.2-9.3,18.8-14.9,4.1-4.1,7.1-9.6,9.9-14.9,2.5-4.7,4.1-9.8,6.3-14.7.5-1.1,1.7-1.9,3.4-3.7.2,2.4.7,3.9.2,5-3.4,9.9-7.1,19.7-10.6,29.5-2.1,5.9-3.8,12-6.4,17.6-2.1,4.5-4.8,8.9-8.2,12.4-6.1,6.5-12.7,12.5-19.4,18.4-7.9,7-16.3,13.3-24.1,20.4-7.8,7.1-15.4,14.4-22.2,22.4-4.4,5.1-7.4,11.5-10.8,17.5-3.7,6.5-7.4,13-10.7,19.7-2.5,5.1-4.2,10.6-6.6,15.8-3.3,7.1-7.3,13.9-10.1,21.2-1.2,3.3-6.8,6.4-2.2,11.3.6.6-1.8,4.2-3.1,6.3-.7,1.3-1.8,2.4-3.7,5-1.4-3.3-2.7-5.1-2.8-7-.2-7.8-.2-15.7,0-23.5,0-1.4,1.1-2.7,1.2-4.1.2-2.4.4-4.8.1-7.2-.2-2.2-1.6-4.5-1.3-6.5,1.1-6.2-3.1-11-3.8-16.7,0-.7-1.2-1.5-2-1.7-9.5-2.4-17.8,2.5-20.3,12.2-1.3,5.4-2.1,10.9-3,16.3-.7,4.1-2.1,8.3-1.9,12.4.6,9.9,1.4,19.8,3.1,29.6,1.2,7,7.1,11.3,11.6,16.4,2.7,3.1,5.2,6.4,6.9,10.1.7,1.4-1.3,3.9-1.6,6-1.1,9.7-5.9,18.3-11.8,25.2-6.2,7.3-10.2,15.3-14.5,23.5-.5.9-2.8,1.5-4.1,1.2-2.7-.5-5.3-1.7-8-2.7-.5.4-1,.7-1.5,1.1.8,4.4,1.7,8.8,2.5,13.1.2,1.3.2,2.6.2,4,0,9,.1,18,0,27,0,2.4-1.3,4.7-1.7,7.1-.2,1.3,0,3,.7,4.2,2.4,4.5,1.6,9.6-2.2,12.8-2.4-.7-4.8-1.3-7.7-2.2,2.2,4.1,3.9,7.2,5.5,10.5.5,1,.8,2.3.5,3.3-2.2,7.9,1.6,15,2.9,22.4.3,1.5.2,3,.2,4.5,0,20.3.2,40.7-.1,61,0,4.1-2,8.1-2.5,12.2-.3,2.8-2.2,5.1-1,8.9.8,2.7-3.8,7.1-6.1,10.6-.2.2-1.2,0-1.6-.1-1.9-7.4-3.9-14.5-5.5-21.7-1.3-5.6-1.8-11.3-3.2-16.9-1.6-6.2-3.8-12.4-5.9-18.5-2.5-7-5.1-14-8-20.8-2.3-5.3-5.3-10.4-7.8-15.7-.9-2-1.2-4.2-2-7.1-4.5,8-8.6,15.3-13.2,23.4-6.1-1.4-11.3,2-14.6,8.9.9-.7,1.8-1.4,2.6-2.1.9-.8,1.5-2,2.5-2.4,2-.8,4.4-2.1,6.1-1.5,1.3.4,2.5,3.5,2.3,5.3-1.1,9.9-2.3,19.7-4.1,29.5-.6,3.1-2.8,5.9-4.3,8.9-.6,0-1.2.2-1.8.2-2.3-4.7-5.3-9.1-6.7-14.1-1.4-5-1.1-10.4-1.5-15.4-1.4-.3-3.1-.4-4.4-1.1-10.5-4.5-21.6,2.5-22.1,14-.1,2.8.1,5.7,0,8.5-.2,3.2-2,4.8-4.9,3-2.6-1.5-7.1,1.8-7.9-2.9-.5-3,.2-6.2.3-9.4,0-.2-.5-.4-.9-.7-6,16-6.2,34-17.8,48.3-7,.5-7.2,0-7.8-7.6-.6-7.9-1.8-15.8-3-23.7-.4-2.5-1.8-4.8-2.5-6.6-1.8,1.3-4,4-5.8,3.8-2.3-.3-4.4-2.9-7.2-5.1-.1,2.1-.1,3.6-.3,5.2-1,9.3-1.9,18.6-3,27.9-.2,1.8-1,3.8-2.1,5.3-1.5,2.2-3.3,4.8-6.2,1.2-3.5-4.3-7.2-8.3-10.5-12.6-4.4-5.8-5.9-12.5-4.9-19.9-4.6,1.9-8,0-8-4.9,0-4.8-2.3-7.6-5.9-10.6,1,7.4,2.4,14.2,2.6,21,.2,6.9-1,13.9-1.6,22.2-17.3-15-22.9-32.9-21-52.7-4.1-2.4-7.4-4.4-11.3-6.7,2.9,11.3,6.3,22,8.3,33,2.7,14.2,12.9,22.7,22.2,32.1,1.4,1.4,2,3.7,2.5,5.7,2.1,7.1,4,14.3,6,21.4,1.9,6.7,5,12.8,6.4,19.8,1.3,6.4,5.3,12.3,8.4,18.3,3.1,5.8,6.6,11.4,10.1,17.4-3.4,5.3-6.8,1.2-10.8-.4,5.8,5.1,1.8,10.9,1.8,16.3,0,3-1.5,6.1-1.8,9.1-.2,2.2-1.1,4.5,3.4,5.2,2.8.4,4.7,5.6,7.5,8.1,3.3,3,6.9,6.1,10.8,8.1,3,1.5,6.8,1.6,10.2,2.2,4,.8,7.3,2.2,6,7.3-.2.8,0,1.7.9,2.7.7-2.1,1.1-4.4,2.2-6.4.8-1.5,2.2-3.2,3.8-3.7,12.2-4.1,21.3-14.7,21-26.6,0-3.1-2.3-6.2-3.3-9.3-2.4-7.3-2.7-14.5.3-21.8,2-4.8,3.2-10,5.2-14.8,2.6-6.3,6-12.4,8.5-18.7,1.7-4.3,1.9-9.2,3.6-13.5,3.1-8.3,1.4-16.8,2.2-25.2.2-2.5,2.8-5.5,5.1-6.9,8.9-5.3,15.1-12.3,17.1-23.7,4.9,2.3,9.4,4.4,14.2,6.6-5.5,8.1-11.3,14.8-14.8,22.6-1.6,3.6-3.8,5.9-6.1,8.7-2.9,3.5,1.7,4.4,2.8,6.5.7,1.3,2.2,2.4,2.5,3.8,1.4,7.6-2.6,12.9-7.7,17.7-1.8,1.6-3.1,3.7-5.1,6.3,2.3,1.2,3.9,2,6.7,3.4-2.1-6.2-.3-9.8,3.5-13,3.7-3.1,7.1-6.7,6.6-12.2,0-.8,0-1.8-.3-2.4-5.3-7.5-2.5-13.6,2.4-20.2,4.6-6.2,9.5-12.9,11.4-20.1,1.9-7.5,0-15.9.4-23.8.2-3.5-1.8-7.8,2.5-10.6.8-.5.4-2.8.7-4.2,1.2-5.5,1.8-11.3,3.7-16.6,1.7-4.7,6.4-4.3,10.9-3.7.2.7.1,1.7.6,2.1,8.2,7.8,4.9,17.6,4.7,26.8,0,.9-.9,2.4-1.6,2.7-3.8,1.2-4,4.2-4.3,7.4-.7,7.3-.7,14.8-2.2,22-2.2,10.7-5.8,21.2-8.2,31.9-1.7,7.6-4.8,14.7-4.9,22.9,0,7.7-2.6,15.4-4.3,23.1-1.3,5.9-3.1,11.6-4.7,17.9-2-.1-4-.3-6.1-.4.4-3.7-2.6-10.6-5-10.4-5.1.5-6.1-2.1-5.8-6.2-1.7,2.3-3.6,4.4-5,6.8-.7,1.2-.8,2.9-1.2,4.3,1.3,0,2.7.2,3.9,0,1.1-.2,2-1.1,3.1-1.2,1.4,0,3.2,0,4.2.7,2.1,1.7,3.8,3.9,5.7,5.9ZM1111.9,195.1c0-1,.2-2.2-.4-2.9-3-3.9-6.1-7.6-9.2-11.3-2.5-3-4.9-6.1-7.5-9-.8-.9-2.1-1.4-3.2-2.1,1.1,3.1,2.7,5.6,4.4,7.8,3.8,4.9,7.6,9.8,11.6,14.5,1.1,1.3,2.9,1.9,4.3,2.8,3.3,12.6,6.5,25.3,9.8,37.9,0-4.9-.1-9.8-.9-14.5-1.1-6.6-2.5-13.2-4.3-19.7-.4-1.5-3.1-2.4-4.7-3.6ZM1093,807.1c-4.4-1.1-8.8-3-13.1-3-8.3,0-14-4.9-17.6-10.7-5.3-8.7-12-15.4-20.5-20.5-1.1-.7-2.2-1.5-3.3-1.9-9-2.7-17.2-.2-25.4,3.6-2.5,1.2-6.4.9-9.1,0-6.2-2.2-12.4-5.1-18.9-3.3-8.7,2.3-15.7,7.8-21.8,14.3-6.4,6.7-10.3,15.9-19.4,20-4.7,2.1-9.3,4.2-13.8,6.7-1.3.7-2.7,2.2-2.9,3.5-.7,4.4-1.2,9-1.1,13.4.3,18.8-1.2,37.7,1,56.5.8,7.1,4.2,12.9,9.8,17.3.8.7,2.4.8,2.9,1.5,5.3,8.9,12.2,16.4,20.2,22.9,4.2,3.4,8.4,7.4,13.3,9.4,13,5.5,26.5,10.2,41.1,9.1,9.1-.7,17.6-3.3,24.5-10,2.5-2.4,5.9-3.9,8.9-5.8,2.8-1.7,6.2-2.7,8.4-4.9,7.7-7.5,15-15.1,20.5-24.7,5.2-9,9.7-18.1,12.8-27.8,2.8-8.8,6.6-17.5,5.6-27.2-.8-8,1-16-1.8-24-1.4-4.2-.3-9.3-.3-14.5ZM849.6,299.4c.8-2.9,2.5-5.9,2.2-8.8-.6-7.9,5.7-11.6,10.4-14.5,4.7-3,7-7.2,8.5-11.3,3-8.2,4.2-17.1,6.4-25.6,1.7-6.5,3.4-13.1,6.2-19.2,5.9-13.1,12.4-26,18.9-38.9,2.3-4.7,4.9-9.3,8.2-13.4,2.5-3.1,6.7-4.9,9.3-7.9,3.5-4.1,6.3-8.8,9.1-13.4,1-1.6.8-3.9,1.9-5.3,3.9-5.3,8-10.4,12-15.6-.4-.4-.8-.7-1.2-1.1-5.5,5.7-12.1,10.7-16.3,17.3-4.5,7.2-10.5,12.8-16.2,18.7-1.9,1.9-5.4,2.7-6.5,4.9-4.9,9.5-9.2,19.3-13.6,29-3.2,7.3-5.5,15.1-9.4,22-6.4,11.3-9,23.9-11.8,36.1-2.2,9.7-4.8,18.1-12.8,24-8.5,6.4-5.5,15-5.5,22.9ZM787.9,277.8c1.9-2.1,4.1-3.5,4.6-5.3,1.5-5.8,5.6-9.8,8.8-14.5,5.7-8.2,15.3-11.6,22.1-18.5,6.8-7,10.2-15.7,14.2-23.8,4.4-9.1,6-19.5,8.7-29.4.6-2.2,1.2-4.4,1.4-6.6.7-5.1,1.1-10.3,1.7-15.4-.7-.1-1.4-.2-2.1-.4-1.7,11.9-5,23.2-9.5,34.1-.6-.2-1.2-.3-1.8-.5v-15.7c-2,1.7-3.3,3.6-4.1,5.6-1.9,4.8-2.9,10-5.5,14.4-3.6,6.2-5.5,12.4-3.9,19.8,1.4.3,3,.6,4.4.8,0,2.1.6,4.3-.1,5.7-3.6,7.3-8.2,13.7-15.9,17.6-7,3.6-12.1,9.6-16.9,15.7-3.6,4.6-5.9,9.7-6,16.3ZM1004,642.9c.4,0,.8,0,1.1,0,.3-.3.8-.7.8-1,0-5.5.1-11,.1-16.5,0-16.5.2-32.9-.2-49.4-.1-6.2-1.3-12.4-2.1-18.6,0-.4-.9-.7-1.7-1.3,0,2.3,0,4.1,0,5.9.7,24.2,1.3,48.5,2,72.8,0,2.7,0,5.3,0,8ZM977.6,1048.1c3.2-3,6.6-6,9.8-9.1,1.2-1.2,2.1-2.7,3.1-4.1-13.3,8.5-13.8,9.1-12.9,13.1ZM1046,1036.2c-2.1-6.3-5.8-10.5-11.7-9.2,3.5,2.7,7.6,5.9,11.7,9.2ZM995.8,1033.6c2.5,4,4.9,8,7.4,12-2-4.3-.8-10.4-7.4-12ZM1130,241c-.5.4-1,.8-1.4,1.1,2.5,3.2,5,6.4,7.5,9.6.5-.4,1-.8,1.5-1.2-2.5-3.2-5.1-6.4-7.6-9.6Z"/>
    <path class="cls-4" d="M410.2,695c2.7,5,5.3,9.7,7.7,14.5,9.9,19.7,19.9,39.4,29.4,59.3,6.3,13.1,16.3,23.5,24.6,35.1,8.9,12.5,17.9,25,27,37.4,8.9,12.2,18.2,24.1,27.1,36.3,11.9,16.3,23.2,33.1,35.4,49.2,14.4,19.1,29.5,37.7,44.4,56.5,11,13.9,22,27.9,33,41.7,10.5,13.1,21.2,26.1,31.9,39.2,5.9,7.3,11.4,15,17.9,21.7,7.9,8.2,16.8,15.5,25.1,23.4,7.4,7.1,14.4,14.6,21.9,21.7,9.8,9.2,20,18.1,29.9,27.2,2.3,2.1,4,4.8,6.3,6.9,7.7,7.2,15.5,14.2,23.2,21.3,7.6,7.1,15.1,14.5,22.7,21.7,10.1,9.5,20.3,18.8,30.3,28.4,7.1,6.8,13.8,14,21,20.8,10.4,9.7,20.7,19.5,31.6,28.6,13,10.8,26.8,20.8,40,31.4,11,8.8,21.4,18.2,32.4,27.1,7.4,6,15.3,11.3,22.9,17,10.5,8,20.4,16.9,31.5,24.1,10,6.5,21.2,11.2,31.9,16.7,1.2.6,2.3,1.2,3.4,1.9,13.9,8.8,27.7,17.9,41.7,26.5,11.2,6.8,22.8,13.1,34.2,19.6,10.8,6.1,21.4,12.4,32.4,18.1,9,4.7,18.4,8.7,27.6,13.1,7.3,3.5,14.6,7.1,21.8,10.7,5.2,2.6,10.3,5.6,15.6,8,6.6,3,13.4,5.4,20.1,8.2,3.7,1.5,7.4,3.3,11.1,4.9,6.4,2.7,12.9,5.3,19.4,8,7.3,3,14.7,6,22.1,8.9,6,2.4,12.1,4.8,18.1,7.1,8.5,3.2,17,6.3,25.4,9.6,12.3,4.8,24.5,9.6,36.7,14.5,9.4,3.8,18.6,8.5,28.2,11.8,9.9,3.4,20,6,30.2,8,8.5,1.7,16.2,4.6,22.8,10.3,1.6,1.4,1.7,2.6-1.1,4.1-14,7.8-29.1,12.1-44.5,15.5-15,3.3-30.2,3.1-45.1-.8-12.7-3.3-25.3-6.9-37.6-11.2-7.9-2.8-15.2-7-22.7-10.7-8.3-4.1-16.5-8.4-24.9-12.4-7.9-3.8-16-7.2-23.9-11-6.5-3.1-12.7-6.8-19.1-10-9.9-5.1-20-10-29.9-14.9-.6-.3-1.2-.6-1.8-.9-13.9-7.5-27.9-14.8-41.7-22.5-13.5-7.5-26.7-15.5-40.2-23.1-13.9-7.8-27.9-15.4-41.8-23.2-5.3-3-10.1-6.7-15.3-9.8-10.7-6.5-21.6-12.8-32.3-19.2-4.4-2.6-8.7-5.5-13-8.2-12.7-8-25.6-15.7-38-24.1-22.2-15.1-44.3-30.2-66-46.1-11.5-8.4-21.9-18.4-32.9-27.6-7.4-6.2-15.2-11.9-22.2-18.4-6.6-6.1-12.2-13.3-18.8-19.5-9.7-9-19.5-18.2-33.3-20.4-1.6-.2-3.2,0-4.8,0-.2.5-.5,1.1-.7,1.6,5.5,6.5,11,13,16.6,19.4,6,6.8,11.8,13.8,18.4,20.1,12.6,12.1,25.5,23.8,38.5,35.5,9,8.1,18.1,16.2,27.5,23.7,9.2,7.4,18.8,14.2,28.4,21.1,18.9,13.5,37.7,27.2,57,40.2,12.1,8.2,25,15.1,37.5,22.7,4.2,2.6,8.1,5.5,12.3,8.1,7.8,4.8,15.7,9.5,23.6,14.1,12.2,7.1,24.3,14.2,36.7,20.9,11.4,6.2,23.1,11.9,34.6,18,10.5,5.5,20.8,11.2,31.3,16.8,8.7,4.7,17.4,9.4,26.1,14.1,9.7,5.2,19.4,10.6,29.1,15.7,12.3,6.5,24.7,12.9,37.1,19.2,11.4,5.8,22.9,11.5,34.3,17.3,11.3,5.7,22.7,11.2,33.9,16.9,12.3,6.2,25,11.4,38,16.1,15.5,5.6,26.5,15.5,30.1,32.2.7,3.3,1.1,5.5-3.9,4.2-9.7-2.5-19.6-3.7-29.2-6.4-10.9-3.1-21.6-7.3-32.4-10.9-6.5-2.2-13.1-4-19.7-6.1-8-2.6-16-5.3-24-7.9-6.7-2.1-13.5-3.9-20.2-6.1-9.9-3.3-19.8-6.7-29.7-10.2-6-2.1-11.9-4.5-17.8-6.7-3.8-1.4-7.6-2.7-11.3-4.3-10.7-4.9-21.4-9.7-31.9-14.9-15.2-7.4-30.4-14.9-45.4-22.6-13.4-6.9-26.6-14-39.8-21.2-15-8.2-29.9-16.5-44.8-24.8-12.5-7-24.9-13.9-37.2-21.2-15.5-9.2-31.3-18-46.2-28.2-32.3-21.9-64.2-44.3-96-66.9-13.7-9.7-26.8-20.3-40-30.7-7.9-6.2-15.4-12.7-23.1-19-13.4-11.1-27-21.9-40.1-33.3-9.3-8.1-18-17-26.8-25.7-6.5-6.4-13.2-12.8-19.4-19.5-7.1-7.7-13.8-15.7-20.8-23.5-3.1-3.4-6.5-6.4-9.7-9.8-8.6-9.2-17-18.6-25.7-27.6-9.1-9.4-18.8-18.3-27.7-27.9-10-10.8-19.4-22.2-28.8-33.5-8.6-10.3-17.2-20.7-25.3-31.5-11.8-15.9-23.4-32-34.6-48.4-10-14.7-19.5-29.8-28.9-45-12.7-20.7-25.3-41.5-37.4-62.6-7.6-13.2-14.6-26.9-21.4-40.5-8.9-17.6-17.9-35.2-25.9-53.2-5.8-13.1-10.5-26.7-15.2-40.2-4.4-12.5-8.3-25.2-12.1-38-2.9-9.8-5.8-19.7-7.7-29.7-2.3-12.1-4.6-24.3-5-36.6-.5-14.9-1.4-30.2,5.8-44.9Z"/>
    <path class="cls-4" d="M1369.4,1794.2c-9.6-.7-19.3-.6-28.7-2.3-15-2.7-28.5-9.1-39-20.6-6.4-7.1-7.9-22.4-3-29.6,3-4.4,11.2-7.4,16.5-6.6,9.7,1.4,18.3,5.6,27.1,9.6,7.9,3.6,15.8,5,25,4.1,15.6-1.5,28.6-8.4,41-16.2,12.2-7.6,20.7-19.7,26.2-32.6,4.6-10.9,5.4-23.4.2-35.2-3.7-8.3-6.4-16.9-10-25.3-1.8-4.2.4-5.6,3.5-6.3,13.3-3,26.5-6.8,38.6-13.2,13.4-7.2,26.4-15,35.9-27.4,5-6.5,10.7-12.4,15.2-19.2,3.8-5.7,6.2-12.2,9.2-18.4,5.2-10.7,9.1-22.2,15.8-31.8,9.3-13.3,22.1-23,37.9-28.8,12.5-4.5,24.4-3.2,35.4,2.2,6.5,3.2,13.7,7.1,16.9,15.5,2.2,5.9,7,11,10.9,16.3,3.2,4.4,3,5.9-2.5,6.6-13.2,1.7-25.2,6.7-35.5,14.4-8.5,6.4-15.7,14.8-22.4,23-11.1,13.6-21.2,28-32.2,41.7-8,10.1-16.5,19.8-25.3,29.2-4.2,4.5-9.4,8.2-14.5,11.8-9.2,6.6-15,15-16.6,26.4-.9,6.3-2.5,12.5-4.5,18.5-3.7,11.1-7,22.4-12.1,32.8-3.5,7.1-9.3,13.4-15,19.2-6.1,6.2-12.6,12.6-20.1,16.8-11.1,6.3-23,11.6-35.1,15.9-10.7,3.8-22.1,5.6-33.2,8.2-1.7.4-3.7,0-5.5,0,0,.4,0,.8-.1,1.2Z"/>
    <path class="cls-4" d="M1691.1,1664.1c-1.1,3.3-1.9,9.3-4.9,13.9-5.5,8.4-11.6,16.7-18.8,23.7-5.9,5.8-14.4,7.3-22.8,6.2-13.3-1.8-26.6-3.8-39.9-5.9-3.2-.5-6.3-1.5-9.4-2.3-1.1-.3-2.2-1.1-3.2-1-14.1,1.4-28-.5-41.6-3.9-6.4-1.6-12.8-3.7-19.1-5.8-2.7-.9-4.1-2.2-2.6-5.6,4.5-10.2,9.1-20.2,17.9-27.6,4.6-3.8,8.9-8.1,13.8-11.6,4-2.9,8.5-4,13.8-3.5,7.6.7,15.2,0,22.9.4,7.2.3,14.4,1.3,21.6,1.9,3.6.2,7.1-.1,10.7,0,15.5,1,31.1,1.8,46.6,3.2,9.1.8,14.3,6.7,15.2,17.9Z"/>
    <path class="cls-4" d="M1696.6,1635.9c18.6-2.9,36.2-4.3,53.1,2.4,5.8,2.3,11.2,6.4,15.6,10.9,4.4,4.4,7.5,10.1,10.8,15.5,5.4,9,4.3,19.1,3.6,28.9-.9,13.2-8,23.8-16.3,33.3-6.1,7-14.8,10.8-24,11.9-7.4.9-15,.2-22.5-.2-12.7-.7-23.2-14.5-23.4-27.1-.2-14.1,5.3-25.4,12.8-36.5,3.9-5.8,7.1-12.1,10.8-18,1.6-2.6.8-4.3-1.4-5.8-5.3-3.8-10.7-7.5-16-11.4-1.1-.8-1.7-2.2-3-3.9Z"/>
    <path class="cls-4" d="M1357.4,568.5c1.1-5.8,1.9-11.7,3.2-17.5,2.8-12.9,3.3-26,2.1-39-.8-9.3-3.8-18.5-6.7-27.4-2.7-8.2-5.6-16.7-10.2-23.8-4-6.2-9.8-11.4-16.9-14.9-9.2-4.5-17.6-10.5-26.8-14.9-6.8-3.3-14.2-5.1-21.6-7.7-.2.5-.1-.6.5-1,10.6-5.9,21.3-11.4,31.7-17.7,3.5-2.1,5.8-6.4,10.9-5.5,2.4.4,4.8.7,7.3,1.1,6.9,1,13.8,2,20.7,2.9,5,.7,9.9,1.7,14.9,1.9,8.8.3,17.7,0,26.5,0,3.6,4.6,4.4,9.6,4.2,15.2,0,2.5,1.4,5,1.8,7.6,1.1,7.1-1.2,13.6-3.5,20.2-1.7,4.9-2.8,10-4.5,14.9-2.9,8.4-6,16.8-9,25.1-1.3,3.6-2.8,7.1-3.9,10.7-2.4,7.6-2.9,15.7-7.4,22.7-1.7,2.6-1,6.7-1.6,10.1-1.6,8.5-3.3,17-5.1,25.5-.8,3.6-1.9,7.1-3,10.6-.2.7-1.2,1-1.9,1.6-.6-.2-1.1-.5-1.7-.7Z"/>
    <path class="cls-4" d="M1659,1731.8c1.7-1.8,3.2-4.5,5.2-5.2,2-.7,5.8,0,6.8,1.3,7,9.9,16.2,17,26.3,23.1,3.4,2,4.5,4.2,2.2,7.9-3.8,6.1-8.3,9.1-16.8,4.7-11.9-6.2-18.9-17.1-22.8-29.9,0-.3,0-.7,0-1-.3-.3-.7-.7-1-1Z"/>
    <path class="cls-4" d="M1069.8,1075c-.9-4.7-1.8-9.3-2.8-14-.5-2.1-1.1-4.2-2-6.1-2.7-5.9.4-11.8.2-17.7,0-1.3,1.1-3.2,2.3-4,3.6-2.3,7.4-4.6,11.4-6,2.8-1,5,.8,5.2,4.3.1,2.1,1.1,4.2.9,6.3-.9,8.3-.5,17-4.8,24.7-2.5,4.4-5.2,8.8-7.8,13.2-.8-.2-1.7-.4-2.5-.6Z"/>
    <path class="cls-3" d="M1093,807.1c0,5.2-1.2,10.3.2,14.5,2.8,8,1,16,1.8,24,1,9.7-2.7,18.4-5.6,27.2-3.1,9.7-7.7,18.8-12.8,27.8-5.5,9.5-12.8,17.2-20.5,24.7-2.3,2.2-5.6,3.2-8.4,4.9-3,1.8-6.5,3.3-8.9,5.8-6.9,6.8-15.4,9.3-24.5,10-14.5,1.1-28-3.6-41.1-9.1-4.9-2.1-9.1-6-13.3-9.4-8-6.5-14.9-14-20.2-22.9-.5-.8-2-.9-2.9-1.5-5.6-4.5-9-10.3-9.8-17.3-2.2-18.8-.7-37.7-1-56.5,0-4.5.4-9,1.1-13.4.2-1.3,1.6-2.8,2.9-3.5,4.5-2.4,9.1-4.5,13.8-6.7,9.1-4.1,13-13.3,19.4-20,6.2-6.5,13.2-12,21.8-14.3,6.5-1.7,12.7,1.1,18.9,3.3,2.8,1,6.6,1.2,9.1,0,8.2-3.8,16.4-6.3,25.4-3.6,1.2.4,2.2,1.2,3.3,1.9,8.6,5.1,15.2,11.8,20.5,20.5,3.5,5.8,9.2,10.8,17.6,10.7,4.3,0,8.7,1.9,13.1,3Z"/>
    <path class="cls-3" d="M849.6,299.4c0-7.8-3.1-16.5,5.4-22.9,8-6,10.6-14.4,12.8-24,2.7-12.2,5.4-24.8,11.8-36.1,3.9-6.9,6.1-14.7,9.4-22,4.3-9.8,8.7-19.5,13.6-29,1.1-2.2,4.6-3,6.5-4.9,5.8-5.9,11.7-11.5,16.2-18.7,4.2-6.6,10.8-11.6,16.3-17.3.4.4.8.7,1.2,1.1-4,5.2-8.2,10.3-12,15.6-1.1,1.5-.9,3.8-1.9,5.3-2.9,4.6-5.7,9.3-9.1,13.4-2.6,3.1-6.8,4.8-9.3,7.9-3.2,4.1-5.8,8.7-8.2,13.4-6.5,12.9-13,25.8-18.9,38.9-2.8,6.1-4.4,12.7-6.2,19.2-2.3,8.5-3.4,17.4-6.4,25.6-1.5,4.1-3.7,8.3-8.5,11.3-4.7,3-10.9,6.6-10.4,14.5.2,2.9-1.4,5.9-2.2,8.8Z"/>
    <path class="cls-3" d="M787.9,277.8c.2-6.7,2.4-11.7,6-16.3,4.8-6.1,9.8-12.1,16.9-15.7,7.7-3.9,12.2-10.3,15.9-17.6.7-1.5.1-3.6.1-5.7-1.4-.3-3-.6-4.4-.8-1.5-7.3.3-13.5,3.9-19.8,2.5-4.4,3.6-9.6,5.5-14.4.8-2.1,2.1-3.9,4.1-5.6v15.7c.6.2,1.2.3,1.8.5,4.5-10.9,7.8-22.2,9.5-34.1.7.1,1.4.2,2.1.4-.5,5.1-1,10.3-1.7,15.4-.3,2.2-.8,4.5-1.4,6.6-2.7,9.9-4.3,20.4-8.7,29.4-4,8.1-7.3,16.8-14.2,23.8s-16.5,10.3-22.1,18.5c-3.2,4.6-7.3,8.6-8.8,14.5-.5,1.8-2.7,3.1-4.6,5.3Z"/>
    <path class="cls-3" d="M1004,642.9c0-2.7,0-5.3,0-8-.7-24.2-1.3-48.5-2-72.8,0-1.8,0-3.6,0-5.9.9.6,1.7.9,1.7,1.3.8,6.2,2,12.4,2.1,18.6.3,16.5.2,32.9.2,49.4,0,5.5,0,11-.1,16.5,0,.3-.5.7-.8,1-.4,0-.8,0-1.1,0Z"/>
    <path class="cls-3" d="M1111.9,195.1c1.6,1.2,4.3,2.1,4.7,3.6,1.8,6.5,3.1,13.1,4.3,19.7.8,4.7,1,9.5.9,14.5-3.3-12.6-6.5-25.3-9.8-37.9h-.1Z"/>
    <path class="cls-3" d="M1092.6,1162.5c-1.9-2-3.6-4.2-5.8-5.9-1-.8-2.8-.8-4.2-.7-1,0-2,1-3.1,1.2-1.3.2-2.6,0-3.9,0,.4-1.5.4-3.1,1.2-4.3,1.4-2.3,3.2-4.5,5-6.8-.4,4.1.7,6.7,5.8,6.2,2.3-.2,5.4,6.7,5,10.4,0,0,0,0,0,0Z"/>
    <path class="cls-3" d="M1112.1,194.9c-1.5-.9-3.2-1.6-4.3-2.8-4-4.7-7.8-9.6-11.6-14.5-1.8-2.3-3.3-4.7-4.4-7.8,1.1.7,2.3,1.2,3.2,2.1,2.6,2.9,5,6,7.5,9,3.1,3.8,6.2,7.5,9.2,11.3.5.7.3,1.9.4,2.9,0,0,.1-.1.1-.1Z"/>
    <path class="cls-3" d="M977.6,1048.1c-.9-4.1-.5-4.7,12.9-13.1-1,1.4-1.9,2.9-3.1,4.1-3.2,3.1-6.5,6.1-9.8,9.1Z"/>
    <path class="cls-3" d="M1046,1036.2c-4.1-3.2-8.2-6.4-11.7-9.2,5.8-1.3,9.6,2.8,11.7,9.2Z"/>
    <path class="cls-3" d="M995.8,1033.6c6.6,1.6,5.4,7.8,7.4,12-2.5-4-4.9-8-7.4-12Z"/>
    <path class="cls-3" d="M1130,241c2.5,3.2,5.1,6.4,7.6,9.6-.5.4-1,.8-1.5,1.2-2.5-3.2-5-6.4-7.5-9.6.5-.4,1-.8,1.4-1.1Z"/>
    <path class="cls-3" d="M1478.5,1142c.8,1.1,1.6,2,2.5,3.2,5.5-3.4,10.9-6.8,16.3-10.1,1.8-1.1,3.7-3.1,6-.4.3.4,1.9,0,2.7-.3,4.7-2.8,9.2-5.9,14-8.4,1.8-.9,4.2-.7,6.3-1.1,1.2-.2,2.5-.4,3.5-.9,5.3-2.9,10.5-6,15.8-8.9,1.6-.9,3.2-3.2,5.2-.1.2.4,2.7-.4,4-1.1,4.9-2.4,9.6-6.3,14.8-7.1,5.9-.9,10.5-3.6,15.4-6.4.8-.4,2.2.4,3.3.4s3,.1,4.1-.5c8-4.8,15.7-10.1,23.9-14.4,3.2-1.7,6.4-2.3,9.3-5.3,6.3-6.7,10.8-14.3,14.5-22.5,2.3-5,4.4-10.1,7.1-14.9,1.5-2.7,4.1-4.8,6.2-7.1,2-.3,4.2-.7,7.6-1.3,0,2.1.2,4.5,0,6.8-.5,5.6-1,11.2-2,16.6-.9,4.5-2,9.1-4.2,13-1.4,2.6-5.1,3.8-7.5,6-2,1.9-3.4,4.4-5.4,6.3-1.4,1.4-3.4,2.2-5.9,2.3-1.1,1.8-2.2,3.6-3.4,5.6-1.3-.8-2.4-1.5-4-2.5-1.2,1.9-2.4,3.7-2.8,4.3-3.4.8-6,1-8.2,2.2-4.5,2.4-8.6,5.4-13,7.8-1.5.8-3.6.4-5.4.6-.6,0-1.5-.2-1.7,0-3.7,5.3-11.1,3.9-15.3,8.6-.8.9-3.2.3-4.9.4-.9,0-1.9-.2-2.6.2-5.8,3.3-11.5,6.6-17.6,10.2-.7-.8-1.5-1.7-2.5-2.9-3.2,1.9-6.3,4.1-9.7,5.6-2.4,1.1-4.5,5.2-8.1,1.3-.5-.5-4,2.1-6.3,2.9-3.2,1.2-5.5,6-10.3,2.5-1-.8-4.8,2.2-7.2,3.5-4.6,2.5-9.2,7.3-13.6,7.1-9.3-.6-14,6.4-20.8,9.7-7.3,3.5-14,8.4-21,12.7-.7.4-1.2,1.1-2.2,1.9-1-1.1-2-2.1-3.1-3.3-.5.3-1,.9-1.5,1-1.4,0-2.8-.2-4.2-.3.6-1.4.9-3.5,2-4.2,9.8-6.2,19.8-12.2,30.2-18.5Z"/>
    <path class="cls-3" d="M1628.1,946.6c-2.2.4-4.4.3-6.2,1.1-2.5,1.1-4.7,3-7.2,4-2.2.8-4.7.9-7.7,1.3,4.7-7.1,8.1-13.5,12.7-18.9,3.1-3.6,7.9-5.6,12.2-8.5,2.3,2.9,4.5,5.4,6.2,8.2.6.9,0,3.2-.7,4-3,3.2-6.3,6-9.3,8.8Z"/>
    <path class="cls-3" d="M670.9,1653.2c-2.9,3.6-5.3,7.8-8.7,10.6-4.2,3.5-9.6,5.7-14.1,8.9-2.2,1.6-3.6,4.3-5.6,6.4-2,2.1-4,4.2-6.4,5.8-4.7,3.3-9.7,6.2-14.5,9.3-1,.6-1.7,1.6-2.5,2.4-3.7,3.6-7.3,7.2-11,10.8-.9.9-2.6,1.4-2.9,2.4-1.6,6-7,7.8-11.3,11-2.4,1.8-4,4.8-5.9,7.2-.7.9-1.3,2-2.2,2.6-13,8.1-26.1,16.2-39.2,24.2-.3-.3-.8-.5-.8-.7-.4-4.2-8.1-2.6-6.5-7.6,1.6-4.7-2.8-5.9-3.7-8.9-.6-2,.2-4.4.4-6.6.5,0,1.1-.2,1.6-.3,1.3,2,2.6,3.9,3.2,4.8,3.2.7,5.5,1.4,7.8,1.5,1.2,0,2.6-.5,3.7-1.1,3.5-2.1,7-4.3,10.5-6.5.4-.3,1.1-.5,1.2-.9,3.3-10.7,14.6-12,21.7-18.3.6-.5,1.8-.7,2-1.3,3.9-10.3,14.6-12.3,22.1-18.2,1.9-1.5,3-4,4.5-6.1.6-.8.9-1.9,1.6-2.4,15.7-9.9,31.5-19.8,47.4-29.5,1.8-1.1,4.5-.6,6.7-.8.4.4.7.8,1.1,1.3Z"/>
  </g>
  <path id="Neow_Bottom_bone" data-name="Neow Bottom bone" class="cls-4" d="M868.7,1424c-32.3,20.1-69.9,42.3-112.5,66.7-91.2,58.8-185.7,94.4-284.9,97.5-74.9,17.2-99.9,66.6-65.1,154.7-24.5,109.3,36.8,175.5,129.1,114.4,98.9-126.9,280.6-246.2,438.4-352.8-36.2-22.7-68-43.9-105.1-80.4ZM662.2,1663.8c-4.2,3.5-9.6,5.7-14.1,8.9-2.2,1.6-3.6,4.3-5.6,6.4-2,2.1-4,4.2-6.4,5.8-4.7,3.3-9.7,6.2-14.5,9.3-1,.6-1.7,1.6-2.5,2.4-3.7,3.6-7.3,7.2-11,10.8-.9.9-2.6,1.4-2.9,2.4-1.6,6-7,7.8-11.3,11-2.4,1.8-4,4.8-5.9,7.2-.7.9-1.3,2-2.2,2.6-13,8.1-26.1,16.2-39.2,24.2-.3-.3-.8-.5-.8-.7-.4-4.2-8.1-2.6-6.5-7.6,1.6-4.7-2.8-5.9-3.7-8.9-.6-2,.2-4.4.4-6.6.5,0,1.1-.2,1.6-.3,1.3,2,2.6,3.9,3.2,4.8,3.2.7,5.5,1.4,7.8,1.5,1.2,0,2.6-.5,3.7-1.1,3.5-2.1,7-4.3,10.5-6.5.4-.3,1.1-.5,1.2-.9,3.3-10.7,14.6-12,21.7-18.3.6-.5,1.8-.7,2-1.3,3.9-10.3,14.6-12.3,22.1-18.2,1.9-1.5,3-4,4.5-6.1.6-.8.9-1.9,1.6-2.4,15.7-9.9,31.5-19.8,47.4-29.5,1.8-1.1,4.5-.6,6.7-.8.4.4.7.8,1.1,1.3-2.9,3.6-5.2,7.8-8.7,10.6Z"/>
  <path id="New_None" data-name="New None" class="cls-4" d="M1588.2,889c-61.8,83.3-130.1,161.8-205.2,235.4-131.5,85.1-257.2,160.2-374.7,221.4,25.2,26.7,63.8,51,106.3,74.6,123.7-66.8,237.3-131.4,306.4-185.8,65.6-37,159.5-75.2,259.9-117.2,56.4-39.4,47.3-94.8,20.1-154.8,67.5-84.5-25.1-170.9-112.8-73.6ZM1619.7,934.2c3.1-3.6,7.9-5.6,12.2-8.5,2.3,2.9,4.5,5.4,6.2,8.2.6.9,0,3.2-.7,4-3,3.2-6.3,6-9.3,8.8-2.2.4-4.4.3-6.2,1.1-2.5,1.1-4.7,3-7.2,4-2.2.8-4.7.9-7.7,1.3,4.7-7.1,8.1-13.5,12.7-18.9ZM1640,1084.6c-115.6,47.6-176.8,77-184.9,82.6-5.4,3.8-8.8-2.6-8.8-2.6,0,0,25.7-21.2,32.1-22.7s122.5-43.4,144.7-59.6,26.3-41.6,29.2-45.4,6.3-3.5,8.6-2.3c2.3,1.2,6.8,35-21,50Z"/>
</svg>