<?xml version="1.0" encoding="UTF-8"?>
<svg id="Layer_2" data-name="Layer 2" xmlns="http://www.w3.org/2000/svg" viewBox="0 0 800 800">
  <defs>
    <style>
      .cls-1 {
        fill: #fff;
        stroke-width: 0px;
      }
    </style>
  </defs>
  <rect class="cls-1" x="489.52" y="354.62" width="37.1" height="37.1" rx="6.21" ry="6.21"/>
  <circle class="cls-1" cx="589.21" cy="376.85" r="4.91"/>
  <path class="cls-1" d="M159.3,549.58c-6.35-8.7-14.8-15.3-25.36-19.79-10.56-4.49-22.54-6.74-35.95-6.74h-61.63c-1.57,0-2.93.57-4.07,1.71-1.14,1.14-1.71,2.5-1.71,4.07v138.24c0,1.57.57,2.93,1.71,4.07,1.14,1.14,2.49,1.71,4.07,1.71h62.7c13.7,0,25.71-2.1,36.06-6.31,10.34-4.21,18.51-10.7,24.5-19.47,5.99-8.77,9.27-19.87,9.84-33.28.28-5.85.43-11.09.43-15.73s-.14-10.02-.43-16.16c-.43-12.84-3.82-23.61-10.17-32.31ZM115.64,602.65c-.07,3.28-.25,6.99-.54,11.13-.14,4-1,7.28-2.57,9.84-1.57,2.57-3.6,4.46-6.1,5.67-2.5,1.21-5.32,1.82-8.45,1.82h-13.91v-66.34h12.84c4.85,0,9.02,1.36,12.52,4.07,3.49,2.71,5.38,7.06,5.67,13.05.28,3.85.46,7.46.54,10.81.07,3.35.07,6.67,0,9.95Z"/>
  <path class="cls-1" d="M364.97,523.05h-41.94c-1.57,0-2.93.57-4.07,1.71-1.14,1.14-1.71,2.5-1.71,4.07v86.67c0,5.28-1.32,9.35-3.96,12.2-2.64,2.86-6.6,4.28-11.88,4.28s-9.24-1.42-11.88-4.28c-2.64-2.85-3.96-6.92-3.96-12.2v-86.67c0-1.57-.57-2.92-1.71-4.07-1.14-1.14-2.5-1.71-4.07-1.71h-41.94c-1.57,0-2.93.57-4.07,1.71-1.14,1.14-1.71,2.5-1.71,4.07v87.53c0,13.41,2.92,24.47,8.77,33.17,5.85,8.7,14.02,15.12,24.5,19.26,10.49,4.14,22.58,6.21,36.27,6.21s25.54-2.07,35.95-6.21c10.41-4.14,18.54-10.56,24.4-19.26,5.85-8.7,8.77-19.76,8.77-33.17v-87.53c0-1.57-.57-2.92-1.71-4.07-1.14-1.14-2.5-1.71-4.07-1.71Z"/>
  <path class="cls-1" d="M548.69,586.07c-8.63-3.78-20.08-6.53-34.35-8.24-6.42-.86-11.34-1.71-14.77-2.57-3.42-.86-5.78-1.85-7.06-3-1.28-1.14-1.93-2.35-1.93-3.64,0-1.85.82-3.32,2.46-4.39,1.64-1.07,4.24-1.6,7.81-1.6,3,0,5.46.46,7.38,1.39,1.93.93,3.24,1.75,3.96,2.46,1.28,1.14,2.53,2,3.75,2.57,1.21.57,2.82.86,4.82.86h42.8c1.14,0,2.17-.46,3.1-1.39s1.39-2.03,1.39-3.32c-.14-4.71-1.71-9.63-4.71-14.77s-7.35-9.95-13.05-14.44c-5.71-4.49-12.7-8.13-20.97-10.91-8.28-2.78-17.76-4.17-28.46-4.17-12.98,0-24.36,2.07-34.13,6.21-9.77,4.14-17.41,9.92-22.9,17.33-5.49,7.42-8.24,15.98-8.24,25.68s2.25,17.37,6.74,23.86c4.49,6.49,10.88,11.59,19.15,15.3,8.27,3.71,18.05,6.35,29.32,7.92,7.13.86,12.7,1.75,16.69,2.67,3.99.93,6.81,1.96,8.45,3.1,1.64,1.14,2.46,2.57,2.46,4.28,0,1.86-1.46,3.32-4.39,4.39-2.93,1.07-6.81,1.61-11.66,1.61-2.28,0-4.39-.18-6.31-.54-1.93-.35-3.64-.93-5.14-1.71-1.5-.78-2.96-1.68-4.39-2.67-1.43-1.14-2.75-2.03-3.96-2.67-1.21-.64-2.96-.96-5.24-.96h-40.66c-1.28,0-2.39.46-3.32,1.39-.93.93-1.39,2.03-1.39,3.32.28,7.85,3,15.27,8.13,22.26,5.14,6.99,12.84,12.63,23.11,16.91,10.27,4.28,23.33,6.42,39.16,6.42,13.55,0,25.68-2.03,36.38-6.1,10.7-4.07,19.15-9.88,25.36-17.44,6.21-7.56,9.31-16.55,9.31-26.96,0-9.27-1.96-17.05-5.88-23.33-3.93-6.28-10.2-11.3-18.83-15.09Z"/>
  <path class="cls-1" d="M737.97,594.74l38.52-64.63c.43-.71.64-1.5.64-2.35,0-1.28-.46-2.39-1.39-3.32-.93-.93-2.03-1.39-3.32-1.39h-47.29c-2.28,0-4.1.5-5.46,1.5-1.36,1-2.39,2.07-3.1,3.21l-24.18,43.44v-42.37c0-1.57-.57-2.92-1.71-4.07-1.14-1.14-2.5-1.71-4.07-1.71h-40.87c-1.57,0-2.93.57-4.07,1.71-1.14,1.14-1.71,2.5-1.71,4.07v138.24c0,1.57.57,2.93,1.71,4.07,1.14,1.14,2.49,1.71,4.07,1.71h40.87c1.57,0,2.92-.57,4.07-1.71,1.14-1.14,1.71-2.49,1.71-4.07v-45.8l26.11,46.65c.28.57,1.1,1.53,2.46,2.89,1.35,1.36,3.46,2.03,6.31,2.03h48.79c1.28,0,2.39-.46,3.32-1.39.93-.93,1.39-2.03,1.39-3.32,0-1-.21-1.78-.64-2.35l-42.16-71.05Z"/>
  <path class="cls-1" d="M744.2,463.18c-46.11,19.33-97.7,33.18-153.23,43.08l190.29-.02c0-77.57-23.69-150.04-64.16-210.53h-162.9v-4.6h159.78c-12.63-18.31-26.82-35.48-42.36-51.32h-133.6v-4.6h129.01c-33.94-33.45-74.05-60.65-118.37-79.66h-178.09v-3.83h168.83c-43.27-17.22-90.32-26.7-139.41-26.7-86.22,0-166.13,29.25-230.3,78.28h101.26v5.62h-108.43c-27.61,22.15-52.13,48.03-72.75,76.85h169.01v5.36H86.01c-9.61,13.92-18.32,28.51-26.04,43.66h112.69v4.6H57.67c-24.9,50.52-38.93,107.2-38.93,166.9h218.37c-90.86-5.9-162.63-29.43-203.23-81.79l160.79.38c-3.68,3.3-6.01,8.08-6.01,13.42,0,9.97,8.08,18.05,18.05,18.05s18.05-8.08,18.05-18.05c0-5.3-2.3-10.06-5.95-13.36l36.19.09c-3.59,3.3-5.85,8.02-5.85,13.28,0,9.97,8.08,18.05,18.05,18.05s18.05-8.08,18.05-18.05c0-5.23-2.24-9.92-5.79-13.22l22.95.05c-3.52,3.29-5.73,7.97-5.73,13.16,0,9.97,8.08,18.05,18.05,18.05s18.05-8.08,18.05-18.05c0-5.17-2.18-9.82-5.66-13.11l22.65.05c-3.45,3.29-5.61,7.91-5.61,13.05,0,9.97,8.08,18.05,18.05,18.05s18.05-8.08,18.05-18.05c0-5.11-2.13-9.71-5.54-12.99l69.8.17c-3.31,3.27-5.36,7.81-5.36,12.83,0,9.97,8.08,18.05,18.05,18.05s18.05-8.08,18.05-18.05c0-4.99-2.02-9.5-5.29-12.77l21.51.05c-3.24,3.26-5.25,7.75-5.25,12.72,0,9.97,8.08,18.05,18.05,18.05s18.05-8.08,18.05-18.05c0-4.93-1.98-9.4-5.19-12.66l24.19.06c-3.17,3.25-5.14,7.69-5.14,12.6,0,9.97,8.08,18.05,18.05,18.05s18.05-8.08,18.05-18.05c0-4.87-1.94-9.29-5.08-12.54l198.4.47c7.11,14.65-.82,26.83-21.37,36.96ZM306.31,239.8h105.33v3.06h-105.33v-3.06ZM489.52,301.84v3.06h-146.82v-3.06h146.82ZM206.71,446.69c-4.64,0-8.4-3.76-8.4-8.4s3.76-8.4,8.4-8.4,8.4,3.76,8.4,8.4-3.76,8.4-8.4,8.4ZM267.19,446.69c-4.64,0-8.4-3.76-8.4-8.4s3.76-8.4,8.4-8.4,8.4,3.76,8.4,8.4-3.76,8.4-8.4,8.4ZM314.71,446.69c-4.64,0-8.4-3.76-8.4-8.4s3.76-8.4,8.4-8.4,8.4,3.76,8.4,8.4-3.76,8.4-8.4,8.4ZM362.19,446.69c-4.64,0-8.4-3.76-8.4-8.4s3.76-8.4,8.4-8.4,8.4,3.76,8.4,8.4-3.76,8.4-8.4,8.4ZM457.18,446.69c-4.64,0-8.4-3.76-8.4-8.4s3.76-8.4,8.4-8.4,8.4,3.76,8.4,8.4-3.76,8.4-8.4,8.4ZM504.25,446.69c-4.64,0-8.4-3.76-8.4-8.4s3.76-8.4,8.4-8.4,8.4,3.76,8.4,8.4-3.76,8.4-8.4,8.4ZM554.2,446.69c-4.64,0-8.4-3.76-8.4-8.4s3.76-8.4,8.4-8.4,8.4,3.76,8.4,8.4-3.76,8.4-8.4,8.4ZM765.57,423.53h-201c-2.93-2.06-6.5-3.28-10.36-3.28s-7.43,1.22-10.36,3.28h-29.23c-2.93-2.06-6.5-3.28-10.36-3.28s-7.43,1.22-10.36,3.28h-26.34c-2.93-2.06-6.5-3.28-10.36-3.28s-7.43,1.22-10.36,3.28h-74.28c-2.93-2.06-6.5-3.28-10.36-3.28s-7.43,1.22-10.36,3.28h-26.75c-2.93-2.06-6.5-3.28-10.36-3.28s-7.43,1.22-10.36,3.28h-26.8c-2.93-2.06-6.5-3.28-10.36-3.28s-7.43,1.22-10.36,3.28h-39.76c-2.93-2.06-6.5-3.28-10.36-3.28s-7.43,1.22-10.36,3.28H33.88v-19.83h438.32v-55.25h-3.47v-4.62h152.07v-9.05h-.77c-1.16,0-2.12-.95-2.12-2.12s.95-2.12,2.12-2.12h5.39c1.16,0,2.12.95,2.12,2.12s-.95,2.12-2.12,2.12h-.96v9.05h9.05v4.62h-4.62v55.25h136.67v19.83Z"/>
</svg>